<?xml version="1.0" encoding="UTF-8"?>
<svg width="81px" height="85px" viewBox="0 0 81 85" version="1.1" xmlns="http://www.w3.org/2000/svg" xmlns:xlink="http://www.w3.org/1999/xlink">
    <!-- Generator: Sketch 53.2 (72643) - https://sketchapp.com -->
    <title>noun_Teacher_1890421</title>
    <desc>Created with Sketch.</desc>
    <g id="Page-1" stroke="none" stroke-width="1" fill="none" fill-rule="evenodd">
        <g id="Desktop-HD-Copy" transform="translate(-1070.000000, -3674.000000)" fill="#8C1515" fill-rule="nonzero">
            <g id="program-highlights" transform="translate(-4.000000, 3208.000000)">
                <g id="noun_Teacher_1890421" transform="translate(1074.000000, 466.000000)">
                    <path d="M80.7853719,59.2711861 C80.5216336,58.8432701 80.0558615,58.5829386 79.5544579,58.5831979 L65.0713303,58.5831979 C64.9927872,53.566903 64.4308834,48.5699931 63.3934687,43.6622732 L72.1212418,28.8414987 L69.6304852,27.3639207 L62.2753764,39.8594694 C61.1182305,36.6822414 59.4765297,34.1828414 57.159345,33.4063146 C54.463907,32.4414903 51.6996038,31.6826355 48.890091,31.136244 L47.8775883,27.0721789 C48.6840331,26.1026221 49.2951359,24.985116 49.6769502,23.7817376 C51.7019556,21.4869923 52.4931541,19.4506054 52.0490993,17.7233777 C52.0106321,17.6006147 51.9657301,17.4799762 51.9145811,17.3619662 C51.9666527,17.3619662 52.0172778,17.3692235 52.0693494,17.3692235 C52.7567933,17.3693643 53.3493644,16.8839541 53.4868531,16.208062 C53.5461569,15.9177716 54.8768747,8.98563774 50.9903108,4.22487577 C50.0805625,3.11768358 48.9535821,2.21010504 47.679427,1.55855877 C47.4674224,1.31712419 47.1814742,1.15323108 46.866532,1.09264274 C46.8404962,1.09264274 46.7406924,1.06941951 46.5772455,1.04909918 C44.6351387,0.32075384 42.5737649,-0.0342588046 40.500783,0.00260241757 C35.8201278,0.00260241757 32.2893863,1.4192194 30.0083624,4.2118127 C26.1217985,8.97257468 27.4525163,15.9018057 27.5103736,16.1949989 C27.6479707,16.8714258 28.2413366,17.3569916 28.9293238,17.3561604 C28.9828418,17.3561604 29.0320205,17.3474517 29.0840921,17.3460002 C29.0329448,17.4649984 28.9880439,17.5866031 28.9495739,17.7103146 C28.5055191,19.4375423 29.3039498,21.4739292 31.321723,23.7686745 C31.7040958,24.9746064 32.3161738,26.0945639 33.1239778,27.0663731 L32.1114751,31.1304382 C29.3039909,31.6754985 26.5416197,32.4328983 23.8480068,33.3961545 C21.5843401,34.1538123 19.8298176,36.4514606 18.5251355,40.3428029 C18.2635238,39.9525374 17.826573,39.7172757 17.3578646,39.7143243 L11.572135,39.7143243 C10.7732924,39.7143243 10.1257026,40.3641614 10.1257026,41.1657761 L10.1257026,48.4230352 L5.78640535,48.4230352 C4.98756279,48.4230352 4.33997295,49.0728723 4.33997295,49.874487 L4.33997295,58.5831979 L1.44710814,58.5831979 C0.945748583,58.5829634 0.480023726,58.8432725 0.21629311,59.2711412 C-0.0474375049,59.6990099 -0.0715566614,60.2334092 0.152551139,60.6834487 L5.93828075,72.2950633 C5.94840578,72.3139322 5.96431653,72.3284467 5.97444156,72.3473156 C5.98456659,72.3661844 5.99035232,72.3894077 6.00192378,72.409728 C6.03231972,72.4517912 6.06516259,72.4920179 6.10028118,72.5301985 C6.13250891,72.5752184 6.16728025,72.6183488 6.20442431,72.6593777 C6.25770788,72.7124449 6.31527981,72.7609925 6.37654977,72.8045229 C6.41643388,72.837563 6.45795085,72.8685666 6.50094296,72.8974158 C6.57326563,72.9370083 6.64873937,72.9705067 6.72658641,72.997566 C6.76853295,73.0135319 6.80758663,73.0353037 6.84953317,73.0469153 C6.97453077,73.0806314 7.10340311,73.0977114 7.23283775,73.0977162 L16.0806648,73.0977162 L17.369436,83.4378589 C17.4598733,84.1640748 18.0749637,84.7091242 18.804297,84.7093307 L62.1972691,84.7093307 C62.9266023,84.7091242 63.5416927,84.1640748 63.63213,83.4378589 L64.9209013,73.0977162 L73.7687283,73.0977162 C73.898291,73.0967652 74.0271656,73.0787089 74.1520329,73.0440124 C74.1933617,73.0296968 74.233917,73.0132246 74.2735332,72.9946631 C74.3519481,72.9678666 74.427924,72.93436 74.5006231,72.8945129 C74.5436152,72.8656637 74.5851322,72.8346601 74.6250163,72.80162 C74.6860008,72.7577199 74.7435443,72.7091962 74.7971417,72.6564748 C74.8342858,72.6154459 74.8690571,72.5723155 74.9012849,72.5272956 C74.9331064,72.4866549 74.9707136,72.4518201 74.9996423,72.4068251 C75.0112137,72.3865048 75.015553,72.364733 75.0271245,72.3444127 C75.0386959,72.3240923 75.0531603,72.3110293 75.0618389,72.2921604 L80.8475685,60.6805458 C81.0710467,60.2315629 81.047526,59.6985885 80.7853719,59.2711861 Z M62.1799119,58.5831979 L54.6063918,58.5831979 L61.193445,47.3983102 C61.7758492,51.0996965 62.1054397,54.8367024 62.1799119,58.5831979 Z M60.3169069,43.1818427 L51.2463293,58.5831979 L42.0123049,58.5831979 L42.0123049,50.1647774 L48.6470903,34.0391476 C51.22504,34.5680143 53.7633472,35.2756003 56.2437533,36.1568158 C58.0460081,36.7591683 59.373833,39.5430529 60.3169069,43.1818427 Z M40.500783,31.0056133 C42.2686787,30.7902546 43.9545484,30.1335279 45.4041889,29.0955027 L46.1057086,31.9098678 L40.5571939,36.4093685 L34.8973039,31.9098678 L35.5973772,29.1042114 C37.0475485,30.1397425 38.7335136,30.793512 40.500783,31.0056133 Z M39.667638,39.4008107 C40.1978229,39.8220469 40.9481046,39.8184301 41.474232,39.392102 L44.2340251,37.1568661 L40.554301,46.1007123 L36.7863446,37.1089682 L39.667638,39.4008107 Z M50.8051675,14.3937472 C49.1190312,14.2314156 47.5241115,13.5500692 46.2387804,12.442996 C47.41071,10.2491979 48.0374179,7.80387505 48.0656245,5.31491608 C48.3085412,5.54135635 48.5361362,5.78380309 48.7468942,6.040642 C50.4343154,8.47581768 51.167193,11.4500601 50.8051675,14.3937472 L50.8051675,14.3937472 Z M39.8122812,5.65891017 C41.3442726,4.46314115 43.2379665,3.82954859 45.1785454,3.86346426 L45.2089205,3.86346426 C45.2884743,7.97107292 44.3063467,10.9929956 42.2842342,12.8537568 C40.5199906,14.32913 38.2791811,15.1065335 35.9835746,15.0396433 C36.2916647,10.6431957 37.5775431,7.49209382 39.8166205,5.65891017 L39.8122812,5.65891017 Z M32.2561183,6.040642 C33.8560453,4.2601138 36.0906186,3.18379652 38.4757777,3.04484544 C38.3311344,3.15370432 38.1749197,3.2567574 38.0259372,3.3772279 C35.3804123,5.5224737 33.7878902,8.92612822 33.2425852,13.4836869 C32.2907552,13.9695422 31.2583539,14.2765004 30.1963986,14.3893929 C29.8345071,11.4468769 30.5679755,8.47387789 32.2561183,6.040642 Z M31.7484206,18.4592638 C31.8344044,18.1926296 32.03037,17.9758965 32.2864934,17.8641685 C32.6980821,17.7233662 33.0240521,17.4032019 33.1731565,16.9932974 C33.3665311,17.4364603 33.7695436,17.7519118 34.2449629,17.8322366 C34.816636,17.9119249 35.3934278,17.9487969 35.9705567,17.9425469 C38.9852288,18.016843 41.9211243,16.9717586 44.2152214,15.0077113 C44.3020074,14.9278815 44.3728826,14.8349886 44.4553292,14.7522558 C45.4353742,15.5726519 46.553037,16.2115668 47.756088,16.6391432 C47.8212862,17.1843384 48.1779932,17.6502789 48.686144,17.8540084 C48.9547845,17.9620708 49.1622496,18.183533 49.2531455,18.4592638 C49.318235,18.7350396 49.3688601,19.8120169 47.327944,22.0559614 C47.1846289,22.2141912 47.0775046,22.4019378 47.0140681,22.6060616 C46.7230668,23.7312543 46.1354959,24.7570553 45.3130636,25.5757321 C43.9390769,26.8003358 42.2866965,27.6680176 40.500783,28.1027097 C38.7141386,27.6696122 37.0610317,26.8023082 35.687056,25.5771835 C34.8667318,24.7578205 34.2811953,23.7320823 33.9918372,22.6075131 C33.9284008,22.4033893 33.8212764,22.2156427 33.6779614,22.0574128 C31.6312595,19.8134683 31.6775454,18.7364911 31.7469741,18.4607152 L31.7484206,18.4592638 Z M24.7578127,36.1568158 C27.2403508,35.2741784 29.7811284,34.5660924 32.3617079,34.0376962 L39.1194401,50.1647774 L39.1194401,58.5831979 L24.5900266,58.5831979 L24.5900266,45.5201315 C24.5900266,44.7185168 23.9424367,44.0686797 23.1435942,44.0686797 L20.4778193,44.0686797 C21.8924302,38.0132227 23.7337386,36.4993585 24.7578127,36.1568158 Z M18.804297,46.9715834 L21.6971618,46.9715834 L21.6971618,58.5831979 L18.804297,58.5831979 L18.804297,46.9715834 Z M13.0185674,42.6172279 L15.9114322,42.6172279 L15.9114322,58.5831979 L13.0185674,58.5831979 L13.0185674,42.6172279 Z M7.23283775,51.3259388 L10.1257026,51.3259388 L10.1257026,58.5831979 L7.23283775,58.5831979 L7.23283775,51.3259388 Z M33.4132642,81.8064271 C34.0977052,78.4240741 37.061338,75.9933443 40.500783,75.9933443 C43.940228,75.9933443 46.9038609,78.4240741 47.5883018,81.8064271 L33.4132642,81.8064271 Z M60.9186228,81.8064271 L50.5043095,81.8064271 C49.7893452,76.810839 45.5243877,73.1018113 40.4949973,73.1018113 C35.4656069,73.1018113 31.2006494,76.810839 30.4856851,81.8064271 L20.0713718,81.8064271 L18.9865475,73.0977162 L62.0048936,73.0977162 L60.9186228,81.8064271 Z M9.57027252,70.1948125 L11.0167049,67.2919089 L69.9819683,67.2919089 L71.4284007,70.1948125 L9.57027252,70.1948125 Z M73.7687283,68.4008181 L72.1689741,65.1916581 C71.9241458,64.7000087 71.4235778,64.3892987 70.8758635,64.3890052 L10.1257026,64.3890052 C9.57746713,64.3887489 9.07620676,64.6995409 8.83114556,65.1916581 L7.23283775,68.4008181 L3.78743577,61.4861016 L77.2141303,61.4861016 L73.7687283,68.4008181 Z" id="Shape"></path>
                </g>
            </g>
        </g>
    </g>
</svg>