<?xml version="1.0" encoding="UTF-8"?>
<svg width="91px" height="80px" viewBox="0 0 91 80" version="1.1" xmlns="http://www.w3.org/2000/svg" xmlns:xlink="http://www.w3.org/1999/xlink">
    <!-- Generator: Sketch 53.2 (72643) - https://sketchapp.com -->
    <title>noun_teaching_1057474</title>
    <desc>Created with Sketch.</desc>
    <g id="Page-1" stroke="none" stroke-width="1" fill="none" fill-rule="evenodd">
        <g id="Desktop-HD-Copy" transform="translate(-274.000000, -3393.000000)" fill="#8C1515" fill-rule="nonzero">
            <g id="program-highlights" transform="translate(-4.000000, 3208.000000)">
                <g id="noun_teaching_1057474" transform="translate(278.000000, 185.000000)">
                    <path d="M17.25049,24.9089157 C20.0307699,24.9089157 22.2926403,27.1609036 22.2926403,29.9290361 C22.2926403,33.5686747 20.0780851,36.4207831 17.25049,36.4207831 C14.4228949,36.4207831 12.2083398,33.5696988 12.2083398,29.9290361 C12.2083398,27.1609036 14.4702101,24.9089157 17.25049,24.9089157 L17.25049,24.9089157 Z M17.25049,22.8607229 C13.3295033,22.8607229 10.1511589,26.0251807 10.1511589,29.9290361 C10.1511589,34.8477711 13.3295033,38.4689759 17.25049,38.4689759 C21.1714767,38.4689759 24.3498211,34.8170482 24.3498211,29.9290361 C24.3498211,26.0251807 21.1714767,22.8607229 17.25049,22.8607229 L17.25049,22.8607229 Z" id="Shape"></path>
                    <path d="M24.2294761,39.8781325 C23.8334688,39.7296386 23.3829461,39.8986145 23.1700279,40.2662651 C20.407234,45.0303614 21.1879342,43.6836747 20.0369415,45.6683735 L18.3346243,42.7322892 C18.4415977,42.5479518 19.1122387,41.391747 19.2202407,41.2043373 C19.3745293,40.9380723 19.1821828,40.6062651 18.8736057,40.6062651 C17.6989555,40.6062651 16.8030532,40.6062651 15.6284029,40.6062651 C15.3198258,40.6062651 15.1274794,40.9380723 15.281768,41.2043373 C15.3805126,41.3743373 16.067611,42.560241 16.1673843,42.7322892 L14.4650672,45.6683735 C13.3552181,43.7543373 13.661738,44.2827711 11.3319807,40.2662651 C11.1180339,39.8975904 10.6675113,39.7296386 10.2725326,39.8781325 C5.15323803,41.8003614 1.32585306,45.8516867 0.196460771,51.1995181 C0.0802300532,51.7474096 0.490637633,52.2686747 1.0532766,52.2686747 C18.6596589,52.2686747 13.76974,52.2686747 33.4497606,52.2686747 C34.0123996,52.2686747 34.4228072,51.7484337 34.3065765,51.1995181 C33.1761556,45.8516867 29.3487706,41.8003614 24.2294761,39.8781325 Z M2.58690492,50.2194578 C3.75846941,46.671988 6.40606117,43.8188554 10.0657859,42.178253 C10.2550465,42.5049398 12.4942879,46.3668072 12.6835485,46.6924699 C13.4755632,48.0575904 15.4566283,48.0545181 16.2465858,46.6924699 L17.2515186,44.9607229 L18.2564515,46.6924699 C19.0474375,48.0575904 21.0295313,48.0555422 21.8194887,46.6924699 C23.0404255,44.5879518 22.4078424,45.6775904 24.4372513,42.178253 C28.0969761,43.8188554 30.7435392,46.671988 31.9161323,50.2194578 L2.58690492,50.2194578 Z" id="Shape"></path>
                    <path d="M27.5970811,79.9612651 L6.9080133,79.9612651 C6.30114495,79.9612651 5.82593617,79.4389759 5.88456582,78.8378313 C6.26720146,74.9309036 9.06496742,71.6425301 13.041498,70.2405422 C12.313256,69.1642169 11.903877,67.8083133 11.903877,66.3674096 C11.903877,63.4313253 14.3035785,61.0421084 17.2525472,61.0421084 C20.201516,61.0421084 22.6012174,63.4313253 22.6012174,66.3674096 C22.6012174,67.8072892 22.1908098,69.1621687 21.4605106,70.2395181 C25.4390984,71.641506 28.2389215,74.9298795 28.6215572,78.8378313 C28.6801868,79.4389759 28.2049781,79.9612651 27.5970811,79.9612651 Z M8.13100731,77.9130723 L26.3740871,77.9130723 C25.588244,74.8889157 22.8964229,72.491506 19.3519003,71.779759 C18.4817128,71.6046386 18.2276509,70.483253 18.9404641,69.9548193 C19.9453969,69.208253 20.5450652,67.8666867 20.5450652,66.3674096 C20.5450652,62.036506 13.9620864,62.036506 13.9620864,66.3674096 C13.9620864,67.8707831 14.5596975,69.2123494 15.5615445,69.9558434 C16.2733291,70.4842771 16.0213245,71.6056627 15.151137,71.7807831 C11.6066144,72.4935542 8.9168504,74.8899398 8.13100731,77.9130723 Z" id="Shape"></path>
                    <path d="M89.3114781,79.9612651 L68.6213816,79.9612651 C68.0145133,79.9612651 67.5393045,79.4389759 67.5979342,78.8378313 C67.9805698,74.9309036 70.7793644,71.6425301 74.7548664,70.2405422 C74.0266243,69.1642169 73.6172453,67.8083133 73.6172453,66.3674096 C73.6172453,63.4313253 76.0169468,61.0421084 78.9659156,61.0421084 C81.9148843,61.0421084 84.3145858,63.4313253 84.3145858,66.3674096 C84.3145858,67.8072892 83.9041782,69.1621687 83.173879,70.2395181 C87.1524668,71.641506 89.9522899,74.9298795 90.3349255,78.8378313 C90.3935552,79.4389759 89.9183464,79.9612651 89.3114781,79.9612651 Z M69.8443757,77.9130723 L88.0874555,77.9130723 C87.3016124,74.8889157 84.6097912,72.491506 81.0652686,71.779759 C80.1950811,71.6046386 79.9410193,70.483253 80.6538324,69.9548193 C81.6587653,69.208253 82.2584335,67.8666867 82.2584335,66.3674096 C82.2584335,62.036506 75.6754548,62.036506 75.6754548,66.3674096 C75.6754548,67.8707831 76.2730658,69.2123494 77.2749129,69.9558434 C77.9866975,70.4842771 77.7346928,71.6056627 76.8645053,71.7807831 C73.3210113,72.4935542 70.6302188,74.8909639 69.8443757,77.9130723 Z" id="Shape"></path>
                    <path d="M58.4537653,79.9612651 L37.7636689,79.9612651 C37.1568005,79.9612651 36.6815918,79.4389759 36.7402214,78.8378313 C37.122857,74.9309036 39.9216516,71.6425301 43.8971536,70.2405422 C43.1689116,69.1642169 42.7595326,67.8083133 42.7595326,66.3674096 C42.7595326,63.4313253 45.159234,61.0421084 48.1082028,61.0421084 C51.0571715,61.0421084 53.456873,63.4313253 53.456873,66.3674096 C53.456873,67.8072892 53.0464654,69.1621687 52.3161662,70.2395181 C56.294754,71.641506 59.0945771,74.9298795 59.4772128,78.8378313 C59.5358424,79.4389759 59.0606336,79.9612651 58.4537653,79.9612651 Z M38.9866629,77.9130723 L57.2297427,77.9130723 C56.4438996,74.8889157 53.7520785,72.491506 50.2075559,71.779759 C49.3373684,71.6046386 49.0833065,70.483253 49.7961197,69.9548193 C50.8010525,69.208253 51.4007207,67.8666867 51.4007207,66.3674096 C51.4007207,62.036506 44.817742,62.036506 44.817742,66.3674096 C44.817742,67.8707831 45.4153531,69.2123494 46.4172001,69.9558434 C47.1289847,70.4842771 46.8769801,71.6056627 46.0067926,71.7807831 C42.4632985,72.4935542 39.772506,74.8909639 38.9866629,77.9130723 Z" id="Shape"></path>
                    <path d="M71.7657826,16.4242771 L30.6221656,16.4242771 C29.2633976,16.4242771 29.2613404,14.3760843 30.6221656,14.3760843 L71.7657826,14.3760843 C73.1245505,14.3760843 73.1266077,16.4242771 71.7657826,16.4242771 Z" id="Path"></path>
                    <path d="M71.7657826,29.7375301 L35.7651177,29.7375301 C34.4063497,29.7375301 34.4042926,27.6893373 35.7651177,27.6893373 L71.7657826,27.6893373 C73.1245505,27.6893373 73.1266077,29.7375301 71.7657826,29.7375301 Z" id="Path"></path>
                    <path d="M71.7657826,43.0507831 L52.2225645,43.0507831 C51.6547826,43.0507831 51.1939741,42.591988 51.1939741,42.0266867 C51.1939741,41.4613855 51.6547826,41.0025904 52.2225645,41.0025904 L71.7657826,41.0025904 C73.1245505,41.0025904 73.1266077,43.0507831 71.7657826,43.0507831 Z" id="Path"></path>
                    <path d="M87.194639,0.0387349398 L9.02176662,0.0387349398 C7.88723138,0.0387349398 6.96458577,0.957349398 6.96458577,2.08692771 L6.96458577,5.15921687 C6.96458577,6.28879518 7.88723138,7.20740964 9.02176662,7.20740964 L16.2218996,7.20740964 L16.2218996,20.6056627 L18.2790805,20.6056627 L18.2790805,7.20740964 L77.9373251,7.20740964 L77.9373251,50.2194578 L36.7937081,50.2194578 L36.7937081,52.2676506 L78.9659156,52.2676506 C79.5336975,52.2676506 79.994506,51.8088554 79.994506,51.2435542 L79.994506,7.20740964 L87.194639,7.20740964 C88.3291742,7.20740964 89.2518198,6.28879518 89.2518198,5.15921687 L89.2518198,2.08692771 C89.2518198,0.957349398 88.3291742,0.0387349398 87.194639,0.0387349398 Z M9.02176662,5.15921687 L9.02176662,2.08692771 L87.194639,2.08692771 L87.1956676,5.15921687 C86.7451449,5.15921687 9.74692287,5.15921687 9.02176662,5.15921687 Z" id="Shape"></path>
                </g>
            </g>
        </g>
    </g>
</svg>