<?xml version="1.0" encoding="UTF-8"?>
<svg width="88px" height="78px" viewBox="0 0 88 78" version="1.1" xmlns="http://www.w3.org/2000/svg" xmlns:xlink="http://www.w3.org/1999/xlink">
    <!-- Generator: Sketch 53.2 (72643) - https://sketchapp.com -->
    <title>Group 7</title>
    <desc>Created with Sketch.</desc>
    <g id="Page-1" stroke="none" stroke-width="1" fill="none" fill-rule="evenodd">
        <g id="Design-Thinking-LP" transform="translate(-929.000000, -7238.000000)" fill="#FFFFFF" fill-rule="nonzero">
            <g id="eligibility" transform="translate(0.000000, 6987.000000)">
                <g id="Group-7" transform="translate(929.000000, 250.000000)">
                    <g id="noun_Work--Experience_1933192">
                        <g id="Group" transform="translate(0.000000, 0.637820)">
                            <path d="M27.999687,2.36218 L27.999687,10.36218 L3.9999553,10.36218 C2.8332684,10.36212 1.9086397,10.85698 1.2187364,11.54968 C0.5288331,12.24238 6e-07,13.19745 -3.94730906e-16,14.36218 C-0.0004907,34.07598 -3.94730906e-16,52.8265 -3.94730906e-16,73.3309 C3e-07,74.6725 0.3723635,76.041 1.343735,77.0184 C2.3151064,77.9959 3.6665645,78.3622 4.999944,78.3622 L82.999072,78.3622 C84.33239,78.3622 85.683888,77.9899 86.655281,77.0184 C87.626674,76.047 87.999015,74.6955 87.999016,73.3622 L87.999016,35.04968 C87.999748,35.01848 87.999748,34.98718 87.999016,34.95598 C88.000716,28.08204 87.999016,21.23015 87.999016,14.36223 C87.999015,13.19556 87.469555,12.239 86.78028,11.54973 C86.091004,10.86046 85.165748,10.36217 83.999061,10.36223 L59.999329,10.36223 L59.999329,2.36223 C59.999224,1.31506 59.046509,0.36234 57.999352,0.36223 C48.60856,0.36223 39.189337,0.36223 29.812167,0.36223 C28.82901,0.45488 27.995429,1.37467 27.999687,2.36218 Z M31.999642,4.36218 L55.999374,4.36218 L55.999374,10.36218 L31.999642,10.36218 L31.999642,4.36218 Z M3.9999553,14.36218 C30.666324,14.36218 57.332692,14.36218 83.999061,14.36218 C83.997961,21.16108 83.999061,27.93874 83.999061,34.73718 C83.768498,36.13776 82.543889,37.5304 80.46785,38.6122 C78.360453,39.7103 75.525156,40.3812 72.999184,40.3622 L50.99943,40.3622 L50.99943,36.36218 C50.999433,35.30662 50.591801,34.41677 49.999441,33.70593 C49.407081,32.99509 48.55989,32.36215 47.343221,32.36218 L40.655795,32.36218 C39.439126,32.36215 38.591936,32.99509 37.999575,33.70593 C37.407215,34.41677 36.999586,35.30662 36.999586,36.36218 L36.999586,40.3622 L14.999832,40.3622 C12.473861,40.3812 9.638563,39.7103 7.531166,38.6122 C5.455127,37.5304 4.230518,36.13776 3.9999553,34.73718 C4.0014853,27.94048 3.9999553,21.163 3.9999553,14.36218 Z M40.999542,36.36218 L46.999475,36.36218 L46.999475,48.3622 L40.999542,48.3622 L40.999542,36.36218 Z M3.9999553,41.1434 C4.538041,41.5244 5.10041,41.8688 5.687436,42.1747 C8.484645,43.6323 11.801685,44.3862 14.999832,44.3622 L36.999586,44.3622 L36.999586,48.3622 C36.999586,49.4178 37.40722,50.3076 37.999575,51.0184 C38.591931,51.7293 39.439142,52.3622 40.655795,52.3622 L47.343221,52.3622 C48.559874,52.3622 49.407086,51.7293 49.999441,51.0184 C50.591796,50.3076 50.999433,49.4178 50.99943,48.3622 L50.99943,44.3622 L72.999184,44.3622 C76.197331,44.3862 79.514372,43.6323 82.31158,42.1747 C82.898606,41.8688 83.460975,41.5244 83.999061,41.1434 L83.999061,73.3622 C83.999061,74.0289 83.871408,74.1461 83.842813,74.1747 C83.814213,74.2037 83.665732,74.3622 82.999072,74.3622 L4.999944,74.3622 C4.333163,74.3622 4.184775,74.2035 4.156204,74.1747 C4.127634,74.1457 3.9999553,74.0142 3.9999553,73.3309 L3.9999553,41.1434 Z" id="Shape"></path>
                        </g>
                    </g>
                    <g id="noun_duration_2329742" transform="translate(49.000000, 45.000000)">
                        <path d="M23.5699051,7.29677229 L25.165188,6.1001129 C25.4708117,5.87124788 25.470291,5.50061154 25.165188,5.27174652 C24.8606056,5.04288151 24.3654639,5.04288151 24.0608815,5.27096542 L22.465078,6.46840592 C22.159975,6.69727093 22.159975,7.06790728 22.4655987,7.29677229 C22.7701811,7.52563731 23.2648021,7.52563731 23.5699051,7.29677229 Z" id="Path"></path>
                        <path d="M24.6991411,9.60769239 C24.892707,9.82675035 25.3209832,9.90190831 25.6571519,9.77542296 L27.4114012,9.11305526 C27.74757,8.98656991 27.8621198,8.70671344 27.668554,8.48704445 C27.4749881,8.26798649 27.0457768,8.19282853 26.7105431,8.31931388 L24.9558263,8.98168159 C24.6196575,9.10816693 24.5051077,9.3880234 24.6991411,9.60769239 Z" id="Path"></path>
                        <path d="M25.4169295,12.5687156 C25.5113841,12.8754863 25.872508,13.057021 26.2244061,12.9750623 L28.0634143,12.5449706 C28.4153124,12.4633948 28.6235518,12.1485814 28.5295365,11.8418107 C28.4355213,11.53504 28.0739581,11.3535053 27.7229386,11.435464 L25.8830518,11.8647898 C25.5311537,11.9471315 25.322475,12.2619449 25.4169295,12.5687156 Z" id="Path"></path>
                        <path d="M28.6952742,14.5736842 L26.8291283,14.5736842 C26.4726057,14.5736842 26.1832541,14.9263158 26.1836847,15.3631579 C26.1832541,15.7989474 26.4726057,16.1526316 26.8295589,16.1526316 L28.6952742,16.1515789 C29.0526579,16.1526316 29.3411484,15.7989474 29.3415789,15.3631579 C29.3415789,14.9263158 29.0517967,14.5736842 28.6952742,14.5736842 Z" id="Path"></path>
                        <path d="M27.1743803,18.9142799 C26.7228291,18.7663621 26.2386873,19.0083708 26.0907432,19.4529718 C24.402465,24.4927721 19.6575325,27.8791992 14.2822294,27.8791992 C7.42534103,27.8791992 1.84634679,22.3651296 1.84634679,15.5880371 C1.84634679,8.81052085 7.42534103,3.29687508 14.2822294,3.29687508 C15.0129447,3.29687508 15.7380853,3.36638372 16.4516477,3.49056684 C16.4495036,3.50201034 16.4469307,3.51642067 16.4447865,3.52786416 L16.2595348,4.57091761 C16.1776295,5.03035277 16.4730889,5.27490451 16.9160636,5.11554323 L17.9233701,4.75274204 C18.3663448,4.59338076 19.0914854,4.3318757 19.534889,4.17209059 L20.5421955,3.80971323 C20.9851702,3.64992812 21.0520666,3.27398809 20.6905684,2.97476187 L19.8689425,2.29450963 C19.5074443,1.99528341 18.9165254,1.50533226 18.5550272,1.2056822 L17.7329724,0.52415846 C17.3714742,0.224508406 17.0091183,0.355472856 16.927213,0.814484184 L16.7483936,1.82108797 C15.9370595,1.67995153 15.1132894,1.60069472 14.2822294,1.60069472 C6.47935631,1.60069472 0.131052632,7.8746972 0.131052632,15.5871895 C0.131052632,23.2988341 6.47935631,29.5736842 14.2822294,29.5736842 C20.3985396,29.5736842 25.7982856,25.720193 27.7189862,19.9848825 C27.867788,19.5407053 27.6237874,19.0609262 27.1743803,18.9142799 Z" id="Path"></path>
                        <path d="M21.239257,18.2669781 L20.8753319,18.4337836 C20.422873,17.6349612 19.4690062,16.181909 18.3333897,15.798843 C17.3803742,15.4765479 16.3418044,15.0871953 16.080885,14.5360664 C15.81954,13.9845185 16.1838907,12.9509948 16.5461132,12.0251822 C16.9785668,10.9225054 16.4609845,9.26953806 16.129834,8.41413582 L16.493759,8.24733029 C16.7980941,8.10734776 16.9300435,7.75068569 16.7878786,7.45102248 C16.6457137,7.15135928 16.2834912,7.02185448 15.9791562,7.16141791 L6.66735623,11.4367526 C6.36259558,11.5767352 6.23107178,11.9333972 6.37281102,12.2330604 C6.51497591,12.5331428 6.87762406,12.6622284 7.18195907,12.522665 L7.5454585,12.3554404 C7.99791741,13.154682 8.9517842,14.6077342 10.0874007,14.9908001 C11.0404162,15.3130952 12.078986,15.7016096 12.3399054,16.2535767 C12.6008248,16.8047055 12.2364741,17.8382292 11.8742516,18.7644609 C11.4422235,19.8671377 11.9598059,21.5205242 12.2909564,22.3755073 L11.9270313,22.5423128 C11.6226963,22.6818762 11.4907469,23.0385383 11.6329118,23.3382015 C11.774651,23.6382838 12.1372992,23.7677886 12.4416342,23.6278061 L21.7538598,19.3524714 C22.0586205,19.2124888 22.1901443,18.8554077 22.0479794,18.5561636 C21.9058145,18.2565004 21.543592,18.1269956 21.239257,18.2669781 Z M13.2808117,22.1052632 C12.9561953,21.2259961 12.5721828,19.8123955 12.892262,18.9711756 C13.3220591,17.8402115 13.6788484,16.7623463 13.3278337,15.9988933 C12.9764065,15.2350221 11.9324369,14.8198475 10.8014354,14.4259961 C9.90678106,14.1157649 9.09173404,12.8430644 8.68421053,12.1088785 L15.9297146,8.68421053 C16.2539185,9.56389572 16.6383435,10.9770782 16.3182643,11.8187162 C15.8884672,12.9496803 15.5312655,14.0271274 15.8826926,14.7909985 C16.2341198,15.5544515 17.2780894,15.9700443 18.4090909,16.3634776 C19.3037453,16.674545 20.1183798,17.9464092 20.5263158,18.6805952 L13.2808117,22.1052632 Z" id="Shape"></path>
                    </g>
                </g>
            </g>
        </g>
    </g>
</svg>