<?xml version="1.0" encoding="UTF-8"?>
<svg width="101px" height="90px" viewBox="0 0 101 90" version="1.1" xmlns="http://www.w3.org/2000/svg" xmlns:xlink="http://www.w3.org/1999/xlink">
    <!-- Generator: Sketch 53.2 (72643) - https://sketchapp.com -->
    <title>noun_business team_218450</title>
    <desc>Created with Sketch.</desc>
    <g id="Page-1" stroke="none" stroke-width="1" fill="none" fill-rule="evenodd">
        <g id="Design-Thinking-LP" transform="translate(-667.000000, -6451.000000)" fill="#8C1515" fill-rule="nonzero">
            <g id="who-should-attend" transform="translate(150.000000, 6310.000000)">
                <g id="noun_business-team_218450" transform="translate(517.000000, 141.000000)">
                    <path d="M5.67857143,59.4642857 C4.60714286,60.3214286 3.96428571,61.6071429 3.96428571,63 L3.96428571,72.1071429 C4.07142857,73.0714286 3.21428571,73.9285714 2.25,73.9285714 C1.28571429,73.9285714 0.428571429,73.0714286 0.428571429,72.1071429 L0.428571429,63 C0.428571429,60.5357143 1.5,58.1785714 3.42857143,56.6785714 C10.9285714,50.3571429 19.1785714,46.0714286 21.9642857,44.6785714 L21.9642857,33.5357143 C20.25,32.0357143 19.2857143,29.8928571 19.2857143,27.6428571 L19.2857143,14.4642857 C19.2857143,6.85714286 25.5,0.75 33,0.75 L35.8928571,0.75 C43.5,0.75 49.6071429,6.96428571 49.6071429,14.4642857 L49.6071429,27.75 C49.6071429,30 48.6428571,32.1428571 46.9285714,33.6428571 L46.9285714,44.7857143 C49.7142857,46.0714286 57.8571429,50.3571429 65.4642857,56.6785714 C67.3928571,58.2857143 68.4642857,60.5357143 68.4642857,63 L68.4642857,72.1071429 C68.4642857,73.0714286 67.6071429,73.9285714 66.6428571,73.9285714 C65.6785714,73.9285714 64.8214286,73.0714286 64.8214286,72.1071429 L64.8214286,63 C64.8214286,61.6071429 64.1785714,60.3214286 63.1071429,59.4642857 C55.0714286,52.8214286 46.2857143,48.4285714 44.5714286,47.5714286 C43.7142857,47.1428571 43.1785714,46.2857143 43.1785714,45.4285714 L43.1785714,32.6785714 C43.1785714,32.0357143 43.5,31.5 44.0357143,31.1785714 C45.2142857,30.4285714 45.8571429,29.1428571 45.8571429,27.75 L45.8571429,14.4642857 C45.8571429,8.89285714 41.3571429,4.39285714 35.7857143,4.39285714 L32.8928571,4.39285714 C27.3214286,4.39285714 22.8214286,8.89285714 22.8214286,14.4642857 L22.8214286,27.75 C22.8214286,29.1428571 23.4642857,30.4285714 24.6428571,31.1785714 C25.1785714,31.5 25.5,32.0357143 25.5,32.6785714 L25.5,45.4285714 C25.5,46.3928571 24.9642857,47.1428571 24.1071429,47.5714286 C22.5,48.4285714 13.8214286,52.8214286 5.67857143,59.4642857 Z M97.7142857,59.25 C91.7142857,54.3214286 85.1785714,50.7857143 82.7142857,49.5 L82.7142857,40.8214286 C84.1071429,39.5357143 84.8571429,37.8214286 84.8571429,35.8928571 L84.8571429,25.0714286 C84.8571429,18.75 79.7142857,13.5 73.2857143,13.5 L70.9285714,13.5 C64.6071429,13.5 59.3571429,18.6428571 59.3571429,25.0714286 L59.3571429,35.8928571 C59.3571429,37.8214286 60.1071429,39.5357143 61.5,40.8214286 L61.5,48.4285714 C61.5,49.3928571 62.3571429,50.25 63.3214286,50.25 C64.2857143,50.25 65.1428571,49.3928571 65.1428571,48.4285714 L65.1428571,39.8571429 C65.1428571,39.2142857 64.8214286,38.6785714 64.2857143,38.3571429 C63.4285714,37.8214286 62.8928571,36.8571429 62.8928571,35.7857143 L62.8928571,25.0714286 C62.8928571,20.6785714 66.4285714,17.1428571 70.8214286,17.1428571 L73.1785714,17.1428571 C77.5714286,17.1428571 81.1071429,20.6785714 81.1071429,25.0714286 L81.1071429,35.8928571 C81.1071429,36.8571429 80.5714286,37.8214286 79.7142857,38.4642857 C79.1785714,38.7857143 78.8571429,39.3214286 78.8571429,39.9642857 L78.8571429,50.3571429 C78.8571429,51.2142857 79.3928571,52.0714286 80.1428571,52.3928571 C81.5357143,53.0357143 88.6071429,56.6785714 95.1428571,62.0357143 C95.8928571,62.6785714 96.4285714,63.6428571 96.4285714,64.7142857 L96.4285714,72.1071429 C96.4285714,73.0714286 97.2857143,73.9285714 98.25,73.9285714 C99.2142857,73.9285714 100.071429,73.0714286 100.071429,72.1071429 L100.071429,64.7142857 C100.285714,62.5714286 99.4285714,60.5357143 97.7142857,59.25 Z M28.2857143,83.6785714 L29.5714286,53.0357143 C28.7142857,51.9642857 28.1785714,50.6785714 28.1785714,49.1785714 C28.1785714,48.2142857 29.0357143,47.3571429 30,47.3571429 C30.9642857,47.3571429 31.8214286,48.2142857 31.8214286,49.1785714 C31.8214286,50.5714286 33,51.75 34.3928571,51.75 C34.9285714,51.75 35.4642857,51.5357143 35.7857143,51.3214286 C35.8928571,51.2142857 36,51.1071429 36.1071429,51.1071429 C36.6428571,50.6785714 36.9642857,49.9285714 36.9642857,49.1785714 C36.9642857,48.2142857 37.8214286,47.3571429 38.7857143,47.3571429 C39.75,47.3571429 40.6071429,48.2142857 40.6071429,49.1785714 C40.6071429,50.7857143 39.9642857,52.2857143 39,53.3571429 L40.3928571,83.5714286 C40.3928571,84.1071429 40.1785714,84.6428571 39.75,84.9642857 L35.4642857,88.8214286 C35.1428571,89.1428571 34.7142857,89.25 34.2857143,89.25 C33.8571429,89.25 33.4285714,89.1428571 33.1071429,88.8214286 L28.9285714,85.0714286 C28.5,84.75 28.2857143,84.2142857 28.2857143,83.6785714 Z M34.3928571,55.2857143 C33.9642857,55.2857143 33.5357143,55.2857143 33.1071429,55.1785714 L31.9285714,82.9285714 L34.2857143,85.0714286 L36.75,82.9285714 L35.4642857,55.2857143 C35.1428571,55.2857143 34.8214286,55.2857143 34.3928571,55.2857143 Z" id="Shape"></path>
                </g>
            </g>
        </g>
    </g>
</svg>