<?xml version="1.0" encoding="UTF-8"?>
<svg width="66px" height="85px" viewBox="0 0 66 85" version="1.1" xmlns="http://www.w3.org/2000/svg" xmlns:xlink="http://www.w3.org/1999/xlink">
    <!-- Generator: Sketch 53.2 (72643) - https://sketchapp.com -->
    <title>noun_Certificate_659530 (1)</title>
    <desc>Created with Sketch.</desc>
    <g id="Page-1" stroke="none" stroke-width="1" fill="none" fill-rule="evenodd">
        <g id="Design-Thinking-LP" transform="translate(-533.000000, -3781.000000)" fill="#8C1515" fill-rule="nonzero">
            <g id="Group-8" transform="translate(-157.000000, 7.000000)">
                <g id="program-highlights" transform="translate(0.000000, 3309.000000)">
                    <g id="noun_Certificate_659530-(1)" transform="translate(690.000000, 465.000000)">
                        <path d="M65.9421053,21.6526316 L44.3789474,0 L8.85789474,0 L8.85789474,44.7368421 C3.31052632,45.6315789 -0.447368421,50.8210526 0.447368421,56.3684211 C0.805263158,58.8736842 2.23684211,61.2 4.20526316,62.8105263 L0.984210526,85 L10.4684211,76.7684211 L19.8631579,85 L18.5210526,75.6947368 L65.9421053,75.6947368 L65.9421053,21.6526316 L65.9421053,21.6526316 Z M45.7210526,5.27894737 L60.6631579,20.2210526 L45.7210526,20.2210526 L45.7210526,5.27894737 Z M3.04210526,54.8473684 C3.04210526,50.7315789 6.35263158,47.4210526 10.4684211,47.4210526 C14.5842105,47.4210526 17.8947368,50.7315789 17.8947368,54.8473684 C17.8947368,58.9631579 14.5842105,62.2736842 10.4684211,62.2736842 C6.35263158,62.2736842 3.04210526,58.9631579 3.04210526,54.8473684 Z M63.2578947,72.9210526 L18.1631579,72.9210526 L16.7315789,62.8105263 C21.1157895,59.3210526 21.9210526,52.9684211 18.4315789,48.4947368 C16.7315789,46.3473684 14.3157895,45.0052632 11.6315789,44.6473684 L11.6315789,2.77368421 L42.9473684,2.77368421 L42.9473684,22.9947368 L62.9,22.9947368 L62.9,22.4578947 L63.2578947,22.8157895 L63.2578947,72.9210526 L63.2578947,72.9210526 Z M56.3684211,66.1210526 L22.7263158,66.1210526 L22.7263158,63.3473684 L56.3684211,63.3473684 L56.3684211,66.1210526 L56.3684211,66.1210526 Z M56.3684211,57.6210526 L22.7263158,57.6210526 L22.7263158,54.8473684 L56.3684211,54.8473684 L56.3684211,57.6210526 Z M56.3684211,49.0315789 L22.7263158,49.0315789 L22.7263158,46.2578947 L56.3684211,46.2578947 L56.3684211,49.0315789 Z M56.3684211,40.5315789 L22.7263158,40.5315789 L22.7263158,37.7578947 L56.3684211,37.7578947 C56.3684211,37.7578947 56.3684211,40.5315789 56.3684211,40.5315789 Z M56.3684211,31.9421053 L22.7263158,31.9421053 L22.7263158,29.1684211 L56.3684211,29.1684211 L56.3684211,31.9421053 Z M35.6105263,23.4421053 L19.2368421,23.4421053 L19.2368421,20.6684211 L35.6105263,20.6684211 L35.6105263,23.4421053 Z M35.6105263,14.8526316 L19.2368421,14.8526316 L19.2368421,12.0789474 L35.6105263,12.0789474 C35.6105263,12.0789474 35.6105263,14.8526316 35.6105263,14.8526316 Z" id="Shape"></path>
                    </g>
                </g>
            </g>
        </g>
    </g>
</svg>