<?xml version="1.0" encoding="UTF-8"?>
<svg width="91px" height="90px" viewBox="0 0 91 90" version="1.1" xmlns="http://www.w3.org/2000/svg" xmlns:xlink="http://www.w3.org/1999/xlink">
    <!-- Generator: Sketch 53.2 (72643) - https://sketchapp.com -->
    <title>noun_Communication_1333584</title>
    <desc>Created with Sketch.</desc>
    <g id="Page-1" stroke="none" stroke-width="1" fill="none" fill-rule="evenodd">
        <g id="Design-Thinking-LP" transform="translate(-673.000000, -6722.000000)" fill="#8C1515" fill-rule="nonzero">
            <g id="who-should-attend" transform="translate(150.000000, 6310.000000)">
                <g id="noun_Communication_1333584" transform="translate(523.000000, 412.000000)">
                    <g id="Group">
                        <path d="M88.6363636,73.6363636 L86.0454545,73.6363636 L86.0454545,21 C86.0454545,17.1818182 82.9090909,14.0454545 79.0909091,14.0454545 L71.5909091,14.0454545 C70.7727273,14.0454545 70.2272727,14.5909091 70.2272727,15.4090909 C70.2272727,16.2272727 70.7727273,16.7727273 71.5909091,16.7727273 L79.0909091,16.7727273 C81.4090909,16.7727273 83.3181818,18.6818182 83.3181818,21 L83.3181818,62.4545455 L6.68181818,62.4545455 L6.68181818,21 C6.68181818,18.6818182 8.59090909,16.7727273 10.9090909,16.7727273 L21,16.7727273 C21.8181818,16.7727273 22.3636364,16.2272727 22.3636364,15.4090909 C22.3636364,14.5909091 21.8181818,14.0454545 21,14.0454545 L10.9090909,14.0454545 C7.09090909,14.0454545 3.95454545,17.1818182 3.95454545,21 L3.95454545,73.6363636 L1.36363636,73.6363636 C0.545454545,73.6363636 0,74.1818182 0,75 L0,77.3181818 C0,84.2727273 5.72727273,90 12.6818182,90 L77.4545455,90 C84.4090909,90 90.1363636,84.2727273 90.1363636,77.3181818 L90.1363636,75 C90,74.3181818 89.4545455,73.6363636 88.6363636,73.6363636 Z M6.68181818,65.1818182 L83.3181818,65.1818182 L83.3181818,73.6363636 L6.68181818,73.6363636 L6.68181818,65.1818182 Z M87.2727273,77.3181818 C87.2727273,82.7727273 82.7727273,87.2727273 77.3181818,87.2727273 L12.6818182,87.2727273 C7.22727273,87.2727273 2.72727273,82.7727273 2.72727273,77.3181818 L2.72727273,76.3636364 C4.63636364,76.3636364 87.2727273,76.3636364 87.2727273,76.3636364 L87.2727273,77.3181818 Z" id="Shape"></path>
                        <path d="M52.6363636,67.9090909 L37.3636364,67.9090909 C36.5454545,67.9090909 36,68.4545455 36,69.2727273 C36,70.0909091 36.5454545,70.6363636 37.3636364,70.6363636 L52.7727273,70.6363636 C53.5909091,70.6363636 54.1363636,70.0909091 54.1363636,69.2727273 C54,68.4545455 53.4545455,67.9090909 52.6363636,67.9090909 Z" id="Path"></path>
                        <path d="M8.45454545,54.1363636 L8.45454545,58.7727273 C8.45454545,59.5909091 9,60.1363636 9.81818182,60.1363636 L31.3636364,60.1363636 C32.1818182,60.1363636 32.7272727,59.5909091 32.7272727,58.7727273 L32.7272727,54.1363636 C32.7272727,49.7727273 29.1818182,46.2272727 24.8181818,46.2272727 L22.5,46.2272727 C25.9090909,45.2727273 28.5,42.1363636 28.5,38.4545455 C28.5,33.9545455 24.8181818,30.2727273 20.3181818,30.2727273 C15.8181818,30.2727273 12.1363636,33.9545455 12.1363636,38.4545455 C12.1363636,42.1363636 14.7272727,45.2727273 18.1363636,46.2272727 L16.3636364,46.2272727 C12,46.2272727 8.45454545,49.7727273 8.45454545,54.1363636 Z M14.7272727,38.3181818 C14.7272727,35.3181818 17.1818182,32.8636364 20.1818182,32.8636364 C23.1818182,32.8636364 25.6363636,35.3181818 25.6363636,38.3181818 C25.6363636,41.3181818 23.1818182,43.7727273 20.1818182,43.7727273 C17.1818182,43.7727273 14.7272727,41.3181818 14.7272727,38.3181818 Z M30,54.1363636 L30,57.4090909 L11.1818182,57.4090909 L11.1818182,54.1363636 C11.1818182,51.2727273 13.5,48.9545455 16.3636364,48.9545455 L24.6818182,48.9545455 C27.6818182,48.9545455 30,51.2727273 30,54.1363636 Z" id="Shape"></path>
                        <path d="M77.8636364,38.3181818 C77.8636364,33.8181818 74.1818182,30.1363636 69.6818182,30.1363636 C65.1818182,30.1363636 61.5,33.8181818 61.5,38.3181818 C61.5,42 64.0909091,45.1363636 67.5,46.0909091 L65.8636364,46.0909091 C61.5,46.0909091 57.9545455,49.6363636 57.9545455,54 L57.9545455,58.6363636 C57.9545455,59.4545455 58.5,60 59.3181818,60 L80.8636364,60 C81.6818182,60 82.2272727,59.4545455 82.2272727,58.6363636 L82.2272727,54 C82.2272727,49.6363636 78.6818182,46.0909091 74.3181818,46.0909091 L72,46.0909091 C75.2727273,45.2727273 77.8636364,42.1363636 77.8636364,38.3181818 Z M79.3636364,54.1363636 L79.3636364,57.4090909 L60.5454545,57.4090909 L60.5454545,54.1363636 C60.5454545,51.2727273 62.8636364,48.9545455 65.7272727,48.9545455 L74.0454545,48.9545455 C77.0454545,48.9545455 79.3636364,51.2727273 79.3636364,54.1363636 Z M69.6818182,43.7727273 C66.6818182,43.7727273 64.2272727,41.3181818 64.2272727,38.3181818 C64.2272727,35.3181818 66.6818182,32.8636364 69.6818182,32.8636364 C72.6818182,32.8636364 75.1363636,35.3181818 75.1363636,38.3181818 C75.1363636,41.3181818 72.6818182,43.7727273 69.6818182,43.7727273 Z" id="Shape"></path>
                        <path d="M29.3181818,24.4090909 C29.0454545,26.0454545 27.9545455,27.8181818 26.4545455,29.0454545 C25.9090909,29.4545455 25.7727273,30.1363636 25.9090909,30.8181818 C26.3181818,31.9090909 27.9545455,32.3181818 29.0454545,31.9090909 C32.4545455,30.8181818 35.1818182,29.4545455 37.0909091,27.6818182 C41.5909091,28.3636364 45.6818182,27.6818182 49.0909091,25.9090909 C51.5454545,26.5909091 54,26.8636364 56.5909091,26.3181818 C58.3636364,27.8181818 60.6818182,29.0454545 63.6818182,30 C64.6363636,30.2727273 66,30.1363636 66.5454545,29.1818182 C66.9545455,28.5 66.6818182,27.8181818 66.1363636,27.2727273 C64.9090909,26.3181818 64.0909091,24.8181818 63.6818182,23.4545455 C66.8181818,21.1363636 68.4545455,17.8636364 68.4545455,14.3181818 C68.4545455,6.13636364 58.9090909,0.272727273 49.6363636,2.59090909 C46.9090909,1.09090909 43.6363636,0.136363636 40.2272727,0.136363636 C30.9545455,0.136363636 23.4545455,6.40909091 23.4545455,14.0454545 C23.7272727,18 25.7727273,21.6818182 29.3181818,24.4090909 Z M66,14.1818182 C66,16.9090909 64.5,19.5 61.9090909,21.4090909 C61.3636364,21.8181818 61.0909091,22.5 61.0909091,23.1818182 C61.2272727,24.2727273 61.6363636,25.5 62.1818182,26.5909091 C60.4090909,25.9090909 59.0454545,24.9545455 58.0909091,24 C57.8181818,23.7272727 57.2727273,23.5909091 56.8636364,23.5909091 C55.2272727,23.8636364 53.7272727,24 52.3636364,23.7272727 C55.2272727,21.1363636 57.1363636,17.7272727 57.1363636,14.0454545 C57.1363636,10.5 55.5,7.36363636 52.9090909,4.77272727 C60.6818182,4.22727273 66,9.13636364 66,14.1818182 Z M40.3636364,2.72727273 C48.1363636,2.72727273 54.4090909,7.77272727 54.4090909,13.9090909 C54.4090909,21.1363636 45.9545455,26.5909091 36.9545455,24.8181818 C36.5454545,24.6818182 36,24.8181818 35.7272727,25.2272727 C34.3636364,26.5909091 32.5909091,27.6818182 30.4090909,28.5 C31.2272727,27.1363636 31.9090909,25.6363636 32.0454545,24.1363636 C32.1818182,23.4545455 31.7727273,22.7727273 31.2272727,22.3636364 C28.2272727,20.1818182 26.4545455,17.1818182 26.4545455,13.9090909 C26.4545455,7.77272727 32.7272727,2.72727273 40.3636364,2.72727273 Z" id="Shape"></path>
                        <path d="M32.3181818,9.95454545 L48.5454545,9.95454545 C49.3636364,9.95454545 49.9090909,9.40909091 49.9090909,8.59090909 C49.9090909,7.77272727 49.3636364,7.22727273 48.5454545,7.22727273 L32.3181818,7.22727273 C31.5,7.22727273 30.9545455,7.77272727 30.9545455,8.59090909 C30.9545455,9.40909091 31.6363636,9.95454545 32.3181818,9.95454545 Z" id="Path"></path>
                        <path d="M32.3181818,15.1363636 L48.5454545,15.1363636 C49.3636364,15.1363636 49.9090909,14.5909091 49.9090909,13.7727273 C49.9090909,12.9545455 49.3636364,12.4090909 48.5454545,12.4090909 L32.3181818,12.4090909 C31.5,12.4090909 30.9545455,12.9545455 30.9545455,13.7727273 C30.9545455,14.4545455 31.6363636,15.1363636 32.3181818,15.1363636 Z" id="Path"></path>
                        <path d="M32.3181818,20.3181818 L48.5454545,20.3181818 C49.3636364,20.3181818 49.9090909,19.7727273 49.9090909,18.9545455 C49.9090909,18.1363636 49.3636364,17.5909091 48.5454545,17.5909091 L32.3181818,17.5909091 C31.5,17.5909091 30.9545455,18.1363636 30.9545455,18.9545455 C30.9545455,19.6363636 31.6363636,20.3181818 32.3181818,20.3181818 Z" id="Path"></path>
                    </g>
                </g>
            </g>
        </g>
    </g>
</svg>