<?xml version="1.0" encoding="UTF-8"?>
<svg width="64px" height="73px" viewBox="0 0 64 73" version="1.1" xmlns="http://www.w3.org/2000/svg" xmlns:xlink="http://www.w3.org/1999/xlink">
    <!-- Generator: Sketch 53.2 (72643) - https://sketchapp.com -->
    <title>noun_Creative design thinking_898457</title>
    <desc>Created with Sketch.</desc>
    <g id="Page-1" stroke="none" stroke-width="1" fill="none" fill-rule="evenodd">
        <g id="Desktop-HD-Copy" transform="translate(-410.000000, -2575.000000)" fill="#FFFFFF" fill-rule="nonzero">
            <g id="noun_Creative-design-thinking_898457" transform="translate(410.000000, 2575.000000)">
                <g id="Group">
                    <path d="M64,0 L57.1769798,5.13512205 L50.3152258,21.2000452 L44.7974177,21.2000452 L42.6306716,16.488924 L44.0462165,16.488924 C46.6355133,16.488924 48.7412244,14.3759862 48.7412244,11.7778029 L48.7412244,7.06668173 L51.0887283,7.06668173 L51.0887283,2.35367783e-15 L44.0462165,2.35367783e-15 L44.0462165,7.06668173 L46.3937204,7.06668173 L46.3937204,11.7778029 C46.3937204,13.0768945 45.3408649,14.1333635 44.0462165,14.1333635 L41.5472985,14.1333635 L38.5471885,7.60963844 L42.141217,5.8076346 L30.3731798,0.745534922 L27.6066464,10.4598667 C27.5315262,4.67932108 22.8283021,0 17.0499211,0 C11.2245901,0 6.48615339,4.75469902 6.48615339,10.6000226 C6.48615339,14.1321857 8.26908264,17.4452816 11.1811613,19.4039302 L11.1811613,21.2000452 L8.33833401,21.2000452 L8.1552287,22.155225 C7.58478524,25.1244091 7.5319664,28.1701489 7.99794593,31.2135332 L5.55111512e-17,45.5318081 L8.85243737,47.5575902 L8.85243737,62.3999774 L20.5899571,62.3999774 L20.5899571,73 L48.7600044,73 L48.7600044,56.5876317 C56.8518505,50.7552637 61.6595386,41.3777771 61.6524961,31.3737113 L61.6501486,27.0771688 C61.6501486,25.4577209 61.4987345,23.8052952 61.198254,22.1646472 L61.0221912,21.2000452 L58.7181161,21.2000452 L64,8.48001807 L64,0 Z M47,3 L49,3 L49,5 L47,5 L47,3 Z M62,7 L61,6.19913106 L62,5 L62,7 Z M43,21 L38.2680449,21 L36,16 L40.6970237,16 L43,21 Z M36,21 L31,21 L31,18.5 C31,17.12125 32.0085451,16 33.248707,16 L33.9559253,16 L36,21 Z M32.2017507,4 L36.6913737,5.97243456 L35.6319356,6.51679407 L39,14 L34.7633771,14 L32.0108711,7.79314339 L31,8.31086403 L32.2017507,4 Z M30.5882581,11 L32,14.0884055 C29.579206,14.250405 27.6553731,16.2383707 27.6553731,18.6857209 L27.6553731,21 L23,21 L23,19.2353622 C25.3288504,17.683638 26.9093495,15.261745 27.4423898,12.5644527 L30.5882581,11 Z M14.0011429,17.5037815 C11.5337143,16.0181261 10,13.2629539 10,10.3130196 C10,5.73017064 13.5897143,2 18,2 C22.4102857,2 26,5.73017064 26,10.3130196 C26,13.2629539 24.4662857,16.0193137 21.9988571,17.5049691 L21.4285714,17.8469904 L21.4285714,21 L19.1428571,21 L19.1428571,13.656041 C20.4697143,13.1643853 21.4285714,11.8580536 21.4285714,10.311832 C21.4285714,8.34758422 19.8902857,6.74910932 18,6.74910932 C16.1097143,6.74910932 14.5714286,8.34758422 14.5714286,10.311832 C14.5714286,11.8580536 15.5302857,13.1643853 16.8571429,13.656041 L16.8571429,21 L14.5714286,21 L14.5714286,17.8469904 L14.0011429,17.5037815 Z M17,11 C17,10.448 17.448,10 18,10 C18.552,10 19,10.448 19,11 C19,11.552 18.552,12 18,12 C17.448,12 17,11.551 17,11 Z M59.9976328,27.5171827 L59.9999919,31.806688 C60.0070695,41.2238507 55.3535756,50.0403181 47.552928,55.3913261 L47.0421643,55.7416337 L47.0421643,71 L23.4503068,71 L23.4503068,60.4202391 L11.6543781,60.4202391 L11.6543781,46.0811365 L4,44.3425291 L10.9006183,32.0735331 L10.8310223,31.664449 C10.3933934,29.0923916 10.3650831,26.5191586 10.7472712,24 L11.6366842,24 L23.432613,24 L59.7404815,24 C59.9115225,25.1790556 59.9976328,26.3569356 59.9976328,27.5171827 Z M54,21 L59.5373507,7 L62,8.33367724 L57.1302416,21 L54,21 Z" id="Shape"></path>
                    <path d="M19.974,30.6 C18.1546,30.6 16.674,28.9848 16.674,27 L14.474,27 C14.474,30.3084 16.9413,33 19.974,33 C23.0067,33 25.474,30.3084 25.474,27 L23.274,27 C23.274,28.9848 21.7934,30.6 19.974,30.6 Z" id="Path"></path>
                </g>
            </g>
        </g>
    </g>
</svg>