<?xml version="1.0" encoding="UTF-8"?>
<svg width="72px" height="90px" viewBox="0 0 72 90" version="1.1" xmlns="http://www.w3.org/2000/svg" xmlns:xlink="http://www.w3.org/1999/xlink">
    <!-- Generator: Sketch 53.2 (72643) - https://sketchapp.com -->
    <title>noun_creative_2111326</title>
    <desc>Created with Sketch.</desc>
    <g id="Page-1" stroke="none" stroke-width="1" fill="none" fill-rule="evenodd">
        <g id="Design-Thinking-LP" transform="translate(-286.000000, -6718.000000)" fill="#8C1515" fill-rule="nonzero">
            <g id="who-should-attend" transform="translate(150.000000, 6310.000000)">
                <g id="noun_creative_2111326" transform="translate(136.000000, 408.000000)">
                    <path d="M58.5,61.5 C58.5,58.1862915 55.8137085,55.5 52.5,55.5 L49.5,55.5 L49.5,54.249 C49.5200541,48.6374544 51.4160997,43.193781 54.8865,38.784 C60.6745789,31.3979097 61.6243964,21.3149955 57.3174481,12.9779466 C53.0104999,4.64089773 44.2377075,-0.419282565 34.8645,0.027 C22.1833591,0.76155436 12.2134641,11.1493962 12,23.85 C11.9506917,29.1964913 13.7098834,34.4027049 16.992,38.6235 C20.4902486,42.9844386 22.42913,48.3902848 22.5,53.9805 L22.5,62.0625 C20.2764257,62.799665 18.3623659,64.2576444 17.061,66.2055 C14.7071355,69.7170379 14.5233959,74.252566 16.5855,77.943 L21,85.8885 L21,90 L24,90 L24,85.5 C24.0003628,85.2453132 23.9352822,84.9948048 23.811,84.7725 L19.2075,76.4865 C17.6937272,73.776946 17.8287771,70.4470684 19.557,67.869 C20.9581474,65.7625299 23.3210939,64.4977116 25.851,64.5 L31.9395,64.5 C33.2726408,64.4986465 34.383758,65.5204563 34.4938533,66.849044 C34.6039486,68.1776317 33.6761796,69.3683967 32.361,69.5865 L26.7525,70.521 C26.2277666,70.6087165 25.7887553,70.9678169 25.5987452,71.4647429 C25.408735,71.9616689 25.4961582,72.5220626 25.8285,72.9375 L28.0785,75.753 C30.2885095,78.5215469 31.4946527,81.9575481 31.5,85.5 L34.5,85.5 C34.4949201,81.2763281 33.0576527,77.1792172 30.423,73.878 L29.769,73.059 L32.8545,72.5445 C35.7061026,72.0665409 37.7155613,69.4829113 37.4768379,66.6014024 C37.2381145,63.7198935 34.8308799,61.5021722 31.9395,61.5 L25.851,61.5 C25.7325,61.5 25.6185,61.518 25.5,61.5225 L25.5,53.9805 C25.4298519,47.7279261 23.270279,41.678482 19.365,36.795 C16.4953459,33.1030411 14.9571795,28.5498573 15,23.874 C15.1823951,12.7598039 23.9054306,3.66717594 35.0025,3.024 C40.7386123,2.75122677 46.3361989,4.83938833 50.4921753,8.80237329 C54.6481518,12.7653583 56.9999191,18.2574056 57,24 C57.016039,28.6918892 55.439603,33.2503858 52.5285,36.93 C48.6431748,41.8688072 46.5211334,47.9651221 46.5,54.249 L46.5,55.5 L43.5,55.5 C41.0562738,55.4957553 38.8550291,56.9765416 37.9379029,59.2416454 C37.0207767,61.5067492 37.5717103,64.101875 39.33,65.799 C38.2123794,66.7499992 37.5485663,68.128919 37.5022842,69.5956615 C37.4560021,71.0624039 38.0315593,72.4804313 39.087,73.5 C38.0726726,74.4839531 37.5002054,75.8368391 37.5002054,77.25 C37.5002054,78.6631609 38.0726726,80.0160469 39.087,81 C37.556907,82.4886827 37.0823205,84.756486 37.8870821,86.7337871 C38.6918436,88.7110882 40.6152044,90.0029269 42.75,90 L53.25,90 C55.3847956,90.0029269 57.3081564,88.7110882 58.1129179,86.7337871 C58.9176795,84.756486 58.443093,82.4886827 56.913,81 C57.9273274,80.0160469 58.4997946,78.6631609 58.4997946,77.25 C58.4997946,75.8368391 57.9273274,74.4839531 56.913,73.5 C57.9684407,72.4804313 58.5439979,71.0624039 58.4977158,69.5956615 C58.4514337,68.128919 57.7876206,66.7499992 56.67,65.799 C57.8385625,64.6740223 58.499198,63.1220704 58.5,61.5 L58.5,61.5 Z M43.5,58.5 L52.5,58.5 C54.1568542,58.5 55.5,59.8431458 55.5,61.5 C55.5,63.1568542 54.1568542,64.5 52.5,64.5 L43.5,64.5 C41.8431458,64.5 40.5,63.1568542 40.5,61.5 C40.5,59.8431458 41.8431458,58.5 43.5,58.5 Z M55.5,84.75 C55.5,85.9926407 54.4926407,87 53.25,87 L42.75,87 C41.5073593,87 40.5,85.9926407 40.5,84.75 C40.5,83.5073593 41.5073593,82.5 42.75,82.5 L53.25,82.5 C54.4926407,82.5 55.5,83.5073593 55.5,84.75 Z M55.5,77.25 C55.5,78.4926407 54.4926407,79.5 53.25,79.5 L42.75,79.5 C41.5073593,79.5 40.5,78.4926407 40.5,77.25 C40.5,76.0073593 41.5073593,75 42.75,75 L53.25,75 C54.4926407,75 55.5,76.0073593 55.5,77.25 Z M53.25,67.5 C54.4926406,67.5000001 55.4999999,68.5073594 55.4999999,69.75 C55.4999999,70.9926406 54.4926406,71.9999999 53.25,72 L42.75,72 C41.5073593,72 40.5,70.9926407 40.5,69.75 C40.5,68.5073593 41.5073593,67.5 42.75,67.5 L53.25,67.5 L53.25,67.5 Z" id="Shape"></path>
                    <path d="M37.5,54 L37.5,36 L40.5,36 L40.5,54 L43.5,54 L43.5,34.5 C43.4938921,34.2409987 43.4188116,33.9883137 43.2825,33.768 L43.302,33.756 L37.302,23.256 C37.0132772,22.8185309 36.5241565,22.5552997 36,22.5552997 C35.4758435,22.5552997 34.9867228,22.8185309 34.698,23.256 L28.698,33.756 L28.7175,33.768 C28.5811884,33.9883137 28.5061079,34.2409987 28.5,34.5 L28.5,60 L31.5,60 L31.5,36 L34.5,36 L34.5,54 L37.5,54 Z M36,27.024 L39.4155,33 L32.5845,33 L36,27.024 Z" id="Shape"></path>
                    <path d="M6.801,8.6115 C7.2645,7.734 7.773,6.867 8.3145,6.0345 L5.799,4.401 C5.2095,5.301 4.6545,6.252 4.149,7.209 L6.801,8.6115 Z" id="Path"></path>
                    <path d="M0.267,19.5885 L3.246,19.9515 C3.366,18.9675 3.5325,17.973 3.7425,17.004 L0.81,16.371 C0.582,17.43 0.399,18.513 0.267,19.5885 Z" id="Path"></path>
                    <path d="M1.65,13.2195 L4.512,14.1195 C4.812,13.176 5.151,12.2325 5.535,11.3145 L2.766,10.1595 C2.34,11.1585 1.965,12.189 1.65,13.2195 Z" id="Path"></path>
                    <path d="M3,24 C3,23.643 3,23.286 3.0165,22.932 L0.0165,22.839 C0,23.2215 0,23.61 0,24 C0,24.7 0.02,25.4 0.06,26.1 L3.06,25.9275 C3.02,25.2875 3,24.645 3,24 Z" id="Path"></path>
                    <path d="M8.2785,46.9695 C8.97,47.8035 9.708,48.6195 10.4685,49.38 L12.6,47.265 C11.9025,46.563 11.226,45.819 10.5915,45.0525 L8.2785,46.9695 Z" id="Path"></path>
                    <path d="M7.2,40.134 L4.5855,41.604 C5.1195,42.552 5.6985,43.4805 6.3075,44.3685 L8.7795,42.669 C8.226,41.85 7.6935,41.0025 7.2,40.134 Z" id="Path"></path>
                    <path d="M3.36,28.893 L0.393,29.3355 C0.5535,30.408 0.7635,31.4835 1.017,32.532 L3.933,31.824 C3.699,30.864 3.507,29.8785 3.36,28.893 Z" id="Path"></path>
                    <path d="M4.77,34.6905 L1.932,35.6625 C2.283,36.687 2.682,37.707 3.132,38.6925 L5.8695,37.4685 C5.46,36.564 5.1,35.6295 4.77,34.6905 Z" id="Path"></path>
                    <path d="M68.154,31.461 L71.076,32.1345 C71.316,31.0965 71.5125,30.0345 71.6595,28.9665 L68.688,28.5555 C68.55,29.532 68.373,30.5085 68.154,31.461 Z" id="Path"></path>
                    <path d="M71.7,19.3335 C71.5635,18.2745 71.376,17.2065 71.1435,16.1595 L68.2155,16.8105 C68.4285,17.7705 68.5995,18.747 68.724,19.7175 L71.7,19.3335 Z" id="Path"></path>
                    <path d="M63.6525,5.9835 C64.1895,6.8055 64.7025,7.6605 65.1525,8.5245 L67.8,7.1145 C67.299,6.1725 66.75,5.2395 66.162,4.344 L63.6525,5.9835 Z" id="Path"></path>
                    <path d="M66.423,11.193 C66.804,12.093 67.149,13.029 67.446,13.9605 L70.3035,13.0485 C69.9795,12.0315 69.603,11.0145 69.1875,10.0275 L66.423,11.193 Z" id="Path"></path>
                    <path d="M68.973,22.65 C68.991,23.1 69,23.55 69,24 C69,24.54 68.9865,25.08 68.961,25.6125 L71.961,25.7625 C71.985,25.176 72,24.591 72,24 C72,23.5095 71.9895,23.0235 71.97,22.539 L68.973,22.65 Z" id="Path"></path>
                    <path d="M66.3135,37.0635 L69.066,38.2635 C69.489,37.2885 69.873,36.2745 70.2105,35.25 L67.3605,34.3125 C67.05,35.25 66.699,36.1725 66.3135,37.0635 Z" id="Path"></path>
                    <path d="M63.4995,42.249 L66,43.9125 C66.6,43.023 67.1535,42.0945 67.6635,41.154 L65.0265,39.72 C64.554,40.584 64.041,41.433 63.4995,42.249 Z" id="Path"></path>
                    <path d="M59.805,46.8555 L61.9695,48.933 C62.7195,48.156 63.429,47.343 64.095,46.512 L61.7535,44.637 C61.1445,45.3975 60.489,46.1445 59.805,46.8555 Z" id="Path"></path>
                    <path d="M42.924,21.4335 L41.1,22.8 L42.9,25.2 L44.7225,23.8335 C47.2141801,21.9599447 47.8669706,18.4959926 46.2281356,15.8440312 C44.5893006,13.1920699 41.199199,12.2265076 38.409,13.617 L37.359,14.1465 C36.5086281,14.5691831 35.5093719,14.5691831 34.659,14.1465 L33.609,13.617 C30.818801,12.2265076 27.4286994,13.1920699 25.7898644,15.8440312 C24.1510294,18.4959926 24.8038199,21.9599447 27.2955,23.8335 L29.1,25.2 L30.9,22.8 L29.0775,21.4335 C27.8176392,20.4949914 27.4845945,18.7489372 28.3105439,17.4125784 C29.1364934,16.0762195 30.8471717,15.593308 32.25,16.3005 L33.3,16.83 C35.000689,17.6755997 36.999311,17.6755997 38.7,16.83 L39.75,16.3005 C41.1516616,15.603578 42.8534596,16.0890606 43.6764433,17.420621 C44.499427,18.7521814 44.1726531,20.4914424 42.9225,21.4335 L42.924,21.4335 Z" id="Path"></path>
                </g>
            </g>
        </g>
    </g>
</svg>