<?xml version="1.0" encoding="UTF-8"?>
<svg width="72px" height="72px" viewBox="0 0 72 72" version="1.1" xmlns="http://www.w3.org/2000/svg" xmlns:xlink="http://www.w3.org/1999/xlink">
    <!-- Generator: Sketch 53.2 (72643) - https://sketchapp.com -->
    <title>noun_leadership_544631</title>
    <desc>Created with Sketch.</desc>
    <g id="Page-1" stroke="none" stroke-width="1" fill="none" fill-rule="evenodd">
        <g id="Desktop-HD-Copy" transform="translate(-408.000000, -2899.000000)" fill="#FFFFFF" fill-rule="nonzero">
            <g id="noun_leadership_544631" transform="translate(408.000000, 2899.000000)">
                <g id="Group">
                    <path d="M49.2631579,16.6206897 C53.4429474,16.6206897 56.8421053,13.2337414 56.8421053,9.06896552 C56.8421053,4.90418966 53.4429474,1.51724138 49.2631579,1.51724138 C45.0833684,1.51724138 41.6842105,4.90418966 41.6842105,9.06896552 C41.6842105,13.2337414 45.0833684,16.6206897 49.2631579,16.6206897 Z M49.2631579,4.03448276 C52.0496842,4.03448276 54.3157895,6.29244828 54.3157895,9.06896552 C54.3157895,11.8454828 52.0496842,14.1034483 49.2631579,14.1034483 C49.1153684,14.1034483 48.9776842,14.0719828 48.8336842,14.0606552 C49.8644211,13.1380862 50.5263158,11.8140172 50.5263158,10.3275862 L48,10.3275862 C48,11.5685862 47.0917895,12.5968793 45.9031579,12.8020345 C44.8724211,11.8794655 44.2105263,10.5553966 44.2105263,9.06896552 C44.2105263,6.29244828 46.4766316,4.03448276 49.2631579,4.03448276 Z" id="Shape"></path>
                    <path d="M10.1052632,31.7241379 C14.2850526,31.7241379 17.6842105,28.3371897 17.6842105,24.1724138 C17.6842105,20.0076379 14.2850526,16.6206897 10.1052632,16.6206897 C5.92547368,16.6206897 2.52631579,20.0076379 2.52631579,24.1724138 C2.52631579,28.3371897 5.92547368,31.7241379 10.1052632,31.7241379 Z M10.1052632,19.137931 C12.8917895,19.137931 15.1578947,21.3958966 15.1578947,24.1724138 C15.1578947,25.6588448 14.496,26.9829138 13.4652632,27.9054828 C12.2766316,27.7003276 11.3684211,26.6720345 11.3684211,25.4310345 L8.84210526,25.4310345 C8.84210526,26.9174655 9.504,28.2415345 10.5347368,29.1641034 C10.3907368,29.175431 10.2530526,29.2068966 10.1052632,29.2068966 C7.31873684,29.2068966 5.05263158,26.948931 5.05263158,24.1724138 C5.05263158,21.3958966 7.31873684,19.137931 10.1052632,19.137931 Z" id="Shape"></path>
                    <path d="M71.136,2.84131034 L63.5570526,0.324068966 C63.1705263,0.193172414 62.7498947,0.25862069 62.4189474,0.495241379 C62.0892632,0.73312069 61.8947368,1.11322414 61.8947368,1.51724138 L61.8947368,11.5862069 L61.8947368,17.8793103 L44.2105263,17.8793103 C43.9149474,17.8793103 43.6282105,17.9825172 43.4008421,18.1700517 L35.8218947,24.4631552 C35.6892632,24.5751724 35.5793684,24.7123621 35.5010526,24.8671724 L31.9187368,32.0073276 L23.9431579,35.4118966 L16.8202105,33.0469483 C16.6913684,33.0054138 16.5562105,32.9827586 16.4210526,32.9827586 L6.31578947,32.9827586 C2.83326316,32.9827586 0,35.8058448 0,39.2758621 L0,53.1206897 C0,53.8167069 0.564631579,54.3793103 1.26315789,54.3793103 L5.05263158,54.3793103 L5.05263158,69.4827586 L0,69.4827586 L0,72 L6.31578947,72 L12.6315789,72 L17.6842105,72 C18.3827368,72 18.9473684,71.4373966 18.9473684,70.7413793 L18.9473684,64.4482759 L21.4736842,64.4482759 L27.7894737,64.4482759 L36.6315789,64.4482759 C37.3301053,64.4482759 37.8947368,63.8856724 37.8947368,63.1896552 L37.8947368,56.8965517 L45.4736842,56.8965517 L51.7894737,56.8965517 C52.488,56.8965517 53.0526316,56.3339483 53.0526316,55.637931 L53.0526316,49.3448276 L60.6315789,49.3448276 L66.9473684,49.3448276 L70.7368421,49.3448276 L70.7368421,46.8275862 L68.2105263,46.8275862 L68.2105263,36.7586207 C68.2105263,33.2886034 65.3772632,30.4655172 61.8947368,30.4655172 L56.8421053,30.4655172 L56.8421053,25.4310345 L63.1578947,25.4310345 C66.6404211,25.4310345 69.4736842,22.6079483 69.4736842,19.137931 L69.4736842,11.5862069 C69.4736842,10.8901897 68.9090526,10.3275862 68.2105263,10.3275862 L64.4210526,10.3275862 L64.4210526,7.45918966 L71.136,5.22891379 C71.6526316,5.05648276 72,4.57694828 72,4.03448276 C72,3.49201724 71.6526316,3.01248276 71.136,2.84131034 Z M51.1869474,20.3965517 L50.5263158,22.0428276 L49.8656842,20.3965517 L51.1869474,20.3965517 Z M17.6842105,61.9310345 C16.9856842,61.9310345 16.4210526,62.4936379 16.4210526,63.1896552 L16.4210526,69.4827586 L13.8947368,69.4827586 L13.8947368,54.3793103 L20.2105263,54.3793103 L20.2105263,61.9310345 L17.6842105,61.9310345 Z M22.7368421,61.9310345 L22.7368421,53.1206897 C22.7368421,52.4246724 22.1722105,51.862069 21.4736842,51.862069 L12.6315789,51.862069 C11.9330526,51.862069 11.3684211,52.4246724 11.3684211,53.1206897 L11.3684211,69.4827586 L7.57894737,69.4827586 L7.57894737,40.5344828 L5.05263158,40.5344828 L5.05263158,51.862069 L2.52631579,51.862069 L2.52631579,39.2758621 C2.52631579,37.1941034 4.22652632,35.5 6.31578947,35.5 L10.1052632,35.5 L10.1052632,44.3103448 L12.6315789,44.3103448 L12.6315789,35.5 L16.2164211,35.5 L23.6008421,37.9517931 C23.8938947,38.0512241 24.2147368,38.0348621 24.4976842,37.9152931 L32.3734737,34.5522586 L33.1402105,35.6976034 L33.5229474,36.2702759 L25.0496842,40.490431 L16.5991579,39.2871897 C16.2366316,39.2343276 15.8690526,39.3438276 15.5924211,39.5817069 C15.3170526,39.8233621 15.1578947,40.1694828 15.1578947,40.5344828 L15.1578947,46.8275862 C15.1578947,47.5236034 15.7225263,48.0862069 16.4210526,48.0862069 L22.7368421,48.0862069 C24.8261053,48.0862069 26.5263158,49.7803103 26.5263158,51.862069 L26.5263158,61.9310345 L22.7368421,61.9310345 Z M36.6315789,54.3793103 C35.9330526,54.3793103 35.3684211,54.9419138 35.3684211,55.637931 L35.3684211,61.9310345 L29.0526316,61.9310345 L29.0526316,51.862069 C29.0526316,48.3920517 26.2193684,45.5689655 22.7368421,45.5689655 L17.6842105,45.5689655 L17.6842105,41.9856724 L25.0837895,43.0391379 C25.3389474,43.0756379 25.5966316,43.0328448 25.8277895,42.9183103 L35.9330526,37.8838276 C36.1174737,37.7919483 36.2627368,37.6522414 36.3802105,37.4898793 C36.3903158,37.4760345 36.4092632,37.471 36.4193684,37.4571552 L41.352,30.0854138 L44.2105263,27.9482759 L44.2105263,54.3793103 L36.6315789,54.3793103 Z M59.3684211,46.8275862 L53.0526316,46.8275862 L53.0526316,39.2758621 L59.3684211,39.2758621 L59.3684211,46.8275862 Z M66.9473684,19.137931 C66.9473684,21.2196897 65.2471579,22.9137931 63.1578947,22.9137931 L55.5789474,22.9137931 C54.8804211,22.9137931 54.3157895,23.4763966 54.3157895,24.1724138 L54.3157895,31.7241379 C54.3157895,32.4201552 54.8804211,32.9827586 55.5789474,32.9827586 L61.8947368,32.9827586 C63.984,32.9827586 65.6842105,34.6768621 65.6842105,36.7586207 L65.6842105,46.8275862 L61.8947368,46.8275862 L61.8947368,38.0172414 C61.8947368,37.3212241 61.3301053,36.7586207 60.6315789,36.7586207 L51.7894737,36.7586207 C51.0909474,36.7586207 50.5263158,37.3212241 50.5263158,38.0172414 L50.5263158,48.0862069 L50.5263158,54.3793103 L46.7368421,54.3793103 L46.7368421,25.4310345 C46.7368421,24.9540172 46.4665263,24.5185345 46.0383158,24.304569 C45.6113684,24.0931207 45.0972632,24.1371724 44.7157895,24.4241379 L39.6631579,28.2 C39.5482105,28.2843276 39.4484211,28.3887931 39.3701053,28.5083621 L35.3684211,34.4893276 L34.2997895,32.8908793 L37.6421053,26.229 L44.6677895,20.3965517 L47.1448421,20.3965517 L49.3528421,25.8979828 C49.5461053,26.3762586 50.0096842,26.6896552 50.5263158,26.6896552 C51.0429474,26.6896552 51.5065263,26.3762586 51.6997895,25.8979828 L53.9077895,20.3965517 L63.1578947,20.3965517 C63.8564211,20.3965517 64.4210526,19.8339483 64.4210526,19.137931 L64.4210526,12.8448276 L66.9473684,12.8448276 L66.9473684,19.137931 Z M64.4210526,4.80475862 L64.4210526,3.2642069 L66.7427368,4.03448276 L64.4210526,4.80475862 Z" id="Shape"></path>
                    <rect id="Rectangle" x="30.3157895" y="6.55172414" width="2.52631579" height="2.51724138"></rect>
                    <rect id="Rectangle" x="25.2631579" y="6.55172414" width="2.52631579" height="2.51724138"></rect>
                    <rect id="Rectangle" x="20.2105263" y="6.55172414" width="2.52631579" height="2.51724138"></rect>
                </g>
            </g>
        </g>
    </g>
</svg>