<?xml version="1.0" encoding="UTF-8"?>
<svg width="106px" height="97px" viewBox="0 0 106 97" version="1.1" xmlns="http://www.w3.org/2000/svg" xmlns:xlink="http://www.w3.org/1999/xlink">
    <!-- Generator: Sketch 53.2 (72643) - https://sketchapp.com -->
    <title>noun_loyal customer_2031317</title>
    <desc>Created with Sketch.</desc>
    <g id="Page-1" stroke="none" stroke-width="1" fill="none" fill-rule="evenodd">
        <g id="Desktop-HD-Copy" transform="translate(-1056.000000, -700.000000)" fill="#8C1515" fill-rule="nonzero">
            <g id="cards" transform="translate(150.000000, 661.000000)">
                <g id="noun_loyal-customer_2031317" transform="translate(906.000000, 38.000000)">
                    <g id="Group">
                        <circle id="Oval" cx="59.73" cy="42.9" r="4.29"></circle>
                        <path d="M81.84,51.15 C81.84,38.94 71.94,29.04 59.73,29.04 C47.52,29.04 37.62,38.94 37.62,51.15 C37.62,56.43 39.435,61.215 42.405,65.01 L42.405,61.38 C42.405,56.76 46.2,52.965 50.82,52.965 L68.475,52.965 C73.095,52.965 76.89,56.76 76.89,61.38 L76.89,65.01 C80.025,61.05 81.84,56.265 81.84,51.15 Z M59.73,50.655 C55.605,50.655 52.14,47.19 52.14,43.065 C52.14,38.94 55.605,35.475 59.73,35.475 C63.855,35.475 67.32,38.94 67.32,43.065 C67.32,47.19 63.855,50.655 59.73,50.655 Z" id="Shape"></path>
                        <path d="M50.82,56.265 C48.015,56.265 45.705,58.575 45.705,61.38 L45.705,68.31 C49.5,71.445 54.45,73.26 59.73,73.26 C65.01,73.26 69.795,71.445 73.755,68.31 L73.755,61.38 C73.755,58.575 71.445,56.265 68.64,56.265 L50.82,56.265 Z" id="Path"></path>
                        <path d="M19.14,34.155 C23.595,20.955 33.99,10.89 47.685,6.765 C62.205,2.475 77.22,5.94 88.275,15.84 L81.675,15.675 C80.85,15.675 80.025,16.335 80.025,17.325 C80.025,18.15 80.685,18.975 81.675,18.975 L91.905,19.305 L91.905,19.305 C92.4,19.305 92.73,19.14 93.06,18.81 C93.39,18.48 93.555,18.15 93.555,17.655 L93.39,7.425 C93.39,6.6 92.565,5.775 91.74,5.775 C90.915,5.775 90.09,6.6 90.09,7.425 L90.09,13.035 C78.21,2.475 62.205,-0.99 46.695,3.465 C31.35,7.92 19.965,19.305 15.51,34.155 C16.995,33.99 17.985,33.99 19.14,34.155 Z" id="Path"></path>
                        <path d="M103.95,56.1 C103.125,55.935 102.3,56.595 102.135,57.585 C99.825,73.26 89.1,86.295 73.92,91.74 C58.245,97.35 41.745,93.72 29.865,82.005 L35.805,82.17 C36.795,82.17 37.455,81.51 37.455,80.52 C37.455,79.53 36.795,78.87 35.805,78.87 L25.74,78.54 C25.245,78.54 24.915,78.705 24.585,79.035 C24.255,79.365 24.09,79.86 24.09,80.19 L24.255,90.255 C24.255,91.245 25.08,91.905 25.905,91.905 L25.905,91.905 C26.895,91.905 27.555,91.08 27.555,90.255 L27.555,84.15 C36.3,92.73 47.85,97.35 59.565,97.35 C64.68,97.35 69.96,96.525 75.075,94.71 C91.575,88.935 103.125,74.91 105.6,57.915 C105.6,57.09 104.94,56.1 103.95,56.1 Z" id="Path"></path>
                        <path d="M35.475,58.74 C36.63,52.47 34.65,46.2 29.865,41.91 C25.08,37.62 18.645,36.3 12.705,38.115 C12.705,38.115 12.705,38.115 12.705,38.115 C6.765,39.93 2.31,44.715 0.66,50.82 C-0.825,56.925 0.825,63.195 5.115,67.65 C8.58,71.28 13.035,73.095 17.82,73.095 C19.47,73.095 21.285,72.93 22.935,72.435 C29.37,70.62 34.155,65.505 35.475,58.74 Z M17.985,53.625 C24.42,53.79 25.74,63.03 19.47,64.845 L19.47,65.835 C19.47,66.66 18.645,67.485 17.82,67.485 C17.82,67.485 17.82,67.485 17.82,67.485 C16.83,67.485 16.17,66.66 16.17,65.835 L16.17,64.845 C13.695,64.02 12.21,61.71 12.21,59.4 C12.21,58.41 13.035,57.75 13.86,57.75 C14.85,57.75 15.51,58.575 15.51,59.4 C15.51,62.535 20.295,62.7 20.295,59.565 C20.295,58.41 19.47,57.255 17.82,57.09 C14.685,56.925 12.21,54.45 12.375,51.315 C12.375,48.84 14.19,46.695 16.5,46.035 L16.5,45.045 C16.5,44.055 17.325,43.395 18.15,43.395 C19.14,43.395 19.8,44.22 19.8,45.045 L19.8,46.035 C22.275,46.86 23.76,49.005 23.76,51.48 C23.76,52.47 23.1,53.13 22.11,53.13 C21.12,53.13 20.46,52.47 20.46,51.48 C20.46,51.315 20.46,49.005 18.15,49.005 C16.83,49.005 15.84,49.995 15.675,51.315 C15.675,52.47 16.665,53.625 17.985,53.625 Z" id="Shape"></path>
                    </g>
                </g>
            </g>
        </g>
    </g>
</svg>