<?xml version="1.0" encoding="UTF-8"?>
<svg width="99px" height="99px" viewBox="0 0 99 99" version="1.1" xmlns="http://www.w3.org/2000/svg" xmlns:xlink="http://www.w3.org/1999/xlink">
    <!-- Generator: Sketch 53.2 (72643) - https://sketchapp.com -->
    <title>noun_market share_2251638</title>
    <desc>Created with Sketch.</desc>
    <g id="Page-1" stroke="none" stroke-width="1" fill="none" fill-rule="evenodd">
        <g id="Desktop-HD-Copy" transform="translate(-665.000000, -696.000000)" fill="#8C1515" fill-rule="nonzero">
            <g id="cards" transform="translate(150.000000, 661.000000)">
                <g id="noun_market-share_2251638" transform="translate(515.000000, 35.000000)">
                    <path d="M55.0000067,15.4476996 L67.9616714,2.46134572 C70.4510928,3.31588335 72.8618024,4.38525349 75.1666703,5.6574215 L55.0000067,25.8624983 L55.0000067,15.4476996 Z M55.0000067,31.0607135 L78.4116698,7.62282442 C80.5044998,8.98622046 82.484745,10.515695 84.3333356,12.1965191 L55.0000067,41.5857217 L55.0000067,31.0607135 Z M86.8266685,14.7864426 C88.5003775,16.6092388 90.0268496,18.5624224 91.3916678,20.6275466 L67.998338,44.0838039 L57.5850063,44.0838039 L86.8266685,14.7864426 Z M93.3533342,23.8787271 C94.6240517,26.1938796 95.6914059,28.6153658 96.5433337,31.1158183 L83.581669,44.0838039 L73.1683372,44.0838039 L93.3533342,23.8787271 Z M63.946672,1.28577761 L55.0000067,10.2678527 L55.0000067,0 C58.0170379,0.134240588 61.0136297,0.564898331 63.946672,1.28577761 L63.946672,1.28577761 Z M88.7516682,44.0838039 L97.7166669,35.1200971 C98.4361756,38.0587262 98.8660146,41.0610259 99,44.0838039 L88.7516682,44.0838039 Z M45.0816748,55.1047549 L56.0816732,66.1257059 C53.1851926,68.4880769 49.5681748,69.7846449 45.8333414,69.7993562 C37.1035636,69.7635473 29.9123299,62.9210471 29.4264704,54.1881242 C28.9406108,45.4552013 35.3282832,37.8543527 44.0000083,36.8467128 L44.0000083,55.1047549 L45.0816748,55.1047549 Z M50.251674,55.1047549 L62.2233389,55.1047549 C61.8601262,58.2073311 60.6269461,61.1433048 58.6666728,63.5725189 L50.251674,55.1047549 Z M1.49687535e-05,53.2679297 C-0.0196838316,28.6070118 19.4056658,8.33372978 44.0000083,7.34730065 L44.0000083,33.0628529 C35.3409588,33.8120542 28.135051,40.0351742 26.1186704,48.5054196 C24.1022898,56.975665 27.7290836,65.7873925 35.1184976,70.3715717 C42.5079116,74.9557509 51.9974688,74.2810291 58.6666728,68.6972611 L76.8350034,86.9001984 C63.4674923,99.1999856 44.115078,102.438317 27.4836475,95.1583945 C10.8522169,87.8784722 0.0749113431,71.4517376 1.49687535e-05,53.2679297 Z M91.6666678,55.1047549 C91.2410342,66.0034338 86.9358194,76.3895125 79.5300029,84.383748 L61.3250057,66.1257059 C63.9590659,63.0097537 65.5890016,59.1673058 66.000005,55.1047549 L91.6666678,55.1047549 Z" id="Shape"></path>
                </g>
            </g>
        </g>
    </g>
</svg>