<?xml version="1.0" encoding="UTF-8"?>
<svg width="94px" height="98px" viewBox="0 0 94 98" version="1.1" xmlns="http://www.w3.org/2000/svg" xmlns:xlink="http://www.w3.org/1999/xlink">
    <!-- Generator: Sketch 53.2 (72643) - https://sketchapp.com -->
    <title>noun_performance_831861</title>
    <desc>Created with Sketch.</desc>
    <g id="Page-1" stroke="none" stroke-width="1" fill="none" fill-rule="evenodd">
        <g id="Desktop-HD-Copy" transform="translate(-277.000000, -702.000000)" fill="#8C1515" fill-rule="nonzero">
            <g id="cards" transform="translate(150.000000, 661.000000)">
                <g id="noun_performance_831861" transform="translate(127.000000, 40.000000)">
                    <path d="M92.79,50.23 C93.6178573,51.0700923 93.9901335,52.2576535 93.79,53.42 L91.3,68.62 C91.0435304,70.158182 89.838182,71.3635304 88.3,71.62 C88.1070074,71.6362328 87.9129926,71.6362328 87.72,71.62 C86.702891,71.6208145 85.7261318,71.2222106 85,70.51 L82.14,67.65 L63,86.83 C62.0997533,87.7307176 60.8784741,88.2367751 59.605,88.2367751 C58.3315259,88.2367751 57.1102467,87.7307176 56.21,86.83 L46.5,77.12 L26,97.59 C24.1249933,99.4650067 21.0850067,99.4650067 19.21,97.59 C17.3349933,95.7149933 17.3349933,92.6750067 19.21,90.8 L43.08,66.94 C43.9802467,66.0392824 45.2015259,65.5332249 46.475,65.5332249 C47.7484741,65.5332249 48.9697533,66.0392824 49.87,66.94 L59.58,76.65 L75.36,60.87 L72.47,58 C71.6887589,57.2441699 71.2761034,56.1851423 71.34,55.1 C71.4560202,53.4033771 72.722407,52.0086963 74.4,51.73 L89.6,49.22 C89.7982172,49.1863248 89.998943,49.1695977 90.2,49.17 C91.16945,49.1673825 92.1005557,49.5484528 92.79,50.23 Z M19.4,78.56 L23,75 L26.47,71.53 C28.0670568,69.9887569 28.2439333,67.490916 26.88,65.74 C26.1248473,64.8207714 25.0167818,64.2629788 23.8286098,64.203951 C22.6404379,64.1449232 21.4825431,64.5901441 20.64,65.43 L17,69 C12.8125836,63.7092815 10.1871653,57.3535525 9.42,50.65 L14.78,50.65 C17.1106416,50.6499999 18.9999998,48.7606416 18.9999998,46.43 C18.9999998,44.0993584 17.1106416,42.2100001 14.78,42.21 L9.47,42.21 C10.2221079,35.5114358 12.830069,29.1560461 17,23.86 L20.6,27.46 C21.4425431,28.2998559 22.6004379,28.7450768 23.7886098,28.686049 C24.9767818,28.6270212 26.0848473,28.0692286 26.84,27.15 C28.197871,25.4008616 28.02118,22.9099496 26.43,21.37 L23,17.9 C28.2904468,13.7121206 34.6463132,11.0866455 41.35,10.32 L41.35,15.41 C41.35,17.7406416 43.2393584,19.63 45.57,19.63 C47.9006416,19.63 49.79,17.7406416 49.79,15.41 L49.79,10.32 L51.19,10.51 C58.7507269,11.7565492 65.7195527,15.3740351 71.09,20.84 L71.25,21 C76.0353979,25.6878544 79.4128495,31.6217771 81,38.13 L81.05,38.35 C81.5612791,40.7101806 83.8239772,42.2624968 86.21,41.89 C87.4650256,41.6520854 88.5673667,40.9094172 89.2592643,39.8356527 C89.9511618,38.7618881 90.1719492,37.4511765 89.87,36.21 C85.5260244,17.406394 69.7807478,3.39641681 50.5996587,1.26767415 C31.4185697,-0.861068511 12.9845825,9.35564872 4.6233963,26.7492191 C-3.73778987,44.1427894 -0.202810055,64.9201115 13.44,78.57 C15.0898503,80.2099385 17.7556621,80.2054656 19.4,78.56 L19.4,78.56 Z M66.57,25.56 C65.1217417,24.0949393 62.7976128,23.9694276 61.2,25.27 L47,36.64 C42.9021756,36.0813447 38.8877289,38.1236052 36.926435,41.7647021 C34.9651412,45.405799 35.4685818,49.8816406 38.1897329,52.9960583 C40.9108839,56.1104759 45.2787062,57.2099026 49.1500331,55.7548808 C53.02136,54.2998589 55.5837855,50.595728 55.58,46.46 C55.5772079,46.0115778 55.5437969,45.5638696 55.48,45.12 L66.86,31 C68.1763806,29.3948548 68.0460805,27.0494529 66.56,25.6 L66.57,25.56 Z" id="Shape"></path>
                </g>
            </g>
        </g>
    </g>
</svg>