<?xml version="1.0" encoding="UTF-8"?>
<svg width="34px" height="64px" viewBox="0 0 34 64" version="1.1" xmlns="http://www.w3.org/2000/svg" xmlns:xlink="http://www.w3.org/1999/xlink">
    <!-- Generator: Sketch 53.2 (72643) - https://sketchapp.com -->
    <title>noun_direction left_891465</title>
    <desc>Created with Sketch.</desc>
    <g id="Page-1" stroke="none" stroke-width="1" fill="none" fill-rule="evenodd">
        <g id="Design-Thinking-LP" transform="translate(-115.000000, -7750.000000)" fill="#AEAEAE" fill-rule="nonzero">
            <g id="testimonials" transform="translate(115.000000, 7614.000000)">
                <g id="noun_direction-left_891465" transform="translate(0.000000, 136.000000)">
                    <g id="Group">
                        <path d="M33.1081579,60.0173714 C33.8284211,60.7323429 33.8284211,61.888 33.1081579,62.6029714 L33.1081579,62.6029714 C32.3878947,63.3179429 31.2236842,63.3179429 30.5034211,62.6029714 L30.5034211,62.6029714 L0.539736842,32.8630857 C-0.178684211,32.1481143 -0.176842105,30.9924571 0.543421053,30.2774857 L0.543421053,30.2774857 C1.26368421,29.5625143 2.42789474,29.5625143 3.14631579,30.2738286 L3.14631579,30.2738286 L33.1081579,60.0173714 L33.1081579,60.0173714 Z" id="Path"></path>
                        <path d="M30.4978947,0.533942857 C31.2181579,-0.181028571 32.3842105,-0.177371429 33.1044737,0.5376 L33.1044737,0.5376 C33.8228947,1.25257143 33.8247368,2.40822857 33.1044737,3.1232 L33.1044737,3.1232 L3.14447368,32.8667429 C2.42605263,33.5780571 1.26,33.5780571 0.541578947,32.8630857 L0.541578947,32.8630857 C-0.178684211,32.1481143 -0.180526316,30.9924571 0.537894737,30.2774857 L0.537894737,30.2774857 L30.4978947,0.533942857 L30.4978947,0.533942857 Z" id="Path"></path>
                    </g>
                </g>
            </g>
        </g>
    </g>
</svg>