<?xml version="1.0" encoding="UTF-8"?>
<svg width="85px" height="85px" viewBox="0 0 85 85" version="1.1" xmlns="http://www.w3.org/2000/svg" xmlns:xlink="http://www.w3.org/1999/xlink">
    <!-- Generator: Sketch 53.2 (72643) - https://sketchapp.com -->
    <title>noun_Office_1925371</title>
    <desc>Created with Sketch.</desc>
    <g id="Page-1" stroke="none" stroke-width="1" fill="none" fill-rule="evenodd">
        <g id="Desktop-HD-Copy" transform="translate(-1070.000000, -3381.000000)" fill="#8C1515" fill-rule="nonzero">
            <g id="program-highlights" transform="translate(-4.000000, 3208.000000)">
                <g id="noun_Office_1925371" transform="translate(1074.000000, 173.000000)">
                    <g id="Group">
                        <path d="M40.3476111,39.1273889 C39.2926667,39.2095556 38.9951667,39.2199444 38.5843333,39.2331667 C38.3142222,39.2416667 37.9978333,39.2520556 37.417,39.2832222 C36.6359444,39.3247778 36.0362222,39.9925 36.0777778,40.7735556 C36.1183889,41.5291111 36.7436111,42.1146667 37.4916111,42.1146667 C37.5161667,42.1146667 37.5426111,42.1137222 37.5681111,42.1127778 C38.1196667,42.0835 38.42,42.0731111 38.6768889,42.0646111 C39.1188889,42.0495 39.4381111,42.0400556 40.5695556,41.9512778 C41.3487222,41.8908333 41.9314444,41.2089444 41.871,40.4288333 C41.8096111,39.6468333 41.1154444,39.049 40.3476111,39.1273889 Z" id="Path"></path>
                        <circle id="Oval" cx="24.8322778" cy="69.4062778" r="2.34694444"></circle>
                        <path d="M84.6127778,72.6381667 C84.4833889,72.2537778 84.1216667,71.995 83.7183889,71.995 L83.1158333,71.995 L83.3972778,71.7796667 C83.5597222,71.6568889 83.623,71.4453333 83.5597222,71.2507778 C83.4955,71.06 83.3141667,70.9296667 83.1111111,70.9296667 L74.0727778,70.9334444 C74.0746667,70.8928333 74.0841111,70.8522222 74.0841111,70.8097222 L74.0841111,15.4369444 C74.0841111,14.7569444 73.6005556,14.1723333 72.9328333,14.0448333 L2.02016667,0.508111111 C1.60461111,0.430666667 1.17772222,0.539277778 0.850944444,0.8075 C0.526055556,1.07761111 0.337166667,1.47711111 0.337166667,1.90022222 L0.337166667,72.7345 C0.337166667,73.5165 0.971833333,74.1511667 1.75383333,74.1511667 L8.06933333,74.1511667 L8.77577778,79.237 C8.79655556,80.1351667 9.23194444,80.9247222 9.88833333,81.4517222 C10.0120556,81.8285556 10.3548889,82.1052778 10.7742222,82.1052778 L11.7167778,82.1052778 L39.7195556,82.1052778 L40.6602222,82.1052778 C40.7726111,82.1052778 40.8783889,82.0854444 40.9879444,82.0722222 C42.5207778,81.9834444 43.1913333,81.6547778 45.2795,80.5922778 C48.7786667,78.7345556 54.3386111,75.7028889 56.4343333,74.1351111 C56.4928889,74.1426667 56.5495556,74.154 56.61,74.154 L61.5645556,74.154 L51.0264444,81.6538333 C50.8583333,81.7728333 50.7865556,81.9881667 50.8488889,82.1836667 C50.9112222,82.3791667 51.0944444,82.5123333 51.2993889,82.5123333 L51.7716111,82.5123333 L51.3579444,82.8060556 C51.0236111,83.0440556 50.881,83.4718889 51.0066111,83.8628889 C51.1312778,84.2538889 51.4967778,84.5192778 51.9057222,84.5192778 L69.7321111,84.5136111 C69.9389444,84.5136111 70.1401111,84.4465556 70.3035,84.32 L84.2897778,73.6931111 C84.6127778,73.4475556 84.7440556,73.0225556 84.6127778,72.6381667 Z M52.7774444,81.5650556 L66.3802778,71.8826111 L81.7076667,71.8769444 L68.9642778,81.5612778 L66.2414444,81.5612778 L67.0716111,80.9946111 C67.2435,80.8784444 67.3171667,80.6631111 67.2557778,80.4647778 C67.1953333,80.2655 67.0121111,80.1304444 66.8033889,80.1304444 L57.5950556,80.1323333 C57.4996667,80.1323333 57.409,80.1606667 57.3306111,80.2154444 L55.3538889,81.5622222 L52.7774444,81.5650556 Z M57.0340556,81.5631667 L57.7442778,81.0796111 L65.2762222,81.0777222 L64.566,81.5612778 L57.0340556,81.5631667 Z M11.7167778,80.2173333 C11.1359444,80.2173333 10.6637222,79.747 10.6637222,79.1661667 C10.6637222,79.1236667 10.6608889,79.0792778 10.6542778,79.0367778 L7.95411111,59.5906667 C7.98244444,59.0362778 8.44333333,58.5942778 9.00527778,58.5942778 L37.9487222,58.5942778 C38.5295556,58.5942778 39.0017778,59.0655556 39.0017778,59.6454444 C39.0017778,59.6888889 39.0046111,59.7323333 39.0112222,59.7757778 L41.7095,79.2209444 C41.6821111,79.7517222 41.2542778,80.1729444 40.7225556,80.2050556 C40.4392222,80.2154444 40.1143333,80.2173333 39.7195556,80.2173333 L11.7167778,80.2173333 Z M48.7994444,40.7622222 C46.5733889,42.9901667 43.6106667,44.217 40.46,44.2188889 L40.4562222,44.2188889 C33.9527778,44.2188889 28.662,38.9281111 28.6601111,32.4265556 C28.6591667,29.2749444 29.886,26.3122222 32.113,24.0842778 C34.34,21.8553889 37.3017778,20.6276111 40.4562222,20.6266667 C46.9606111,20.6266667 52.2504444,25.9174444 52.2523333,32.419 C52.2532778,35.5706111 51.0255,38.5342778 48.7994444,40.7622222 Z M40.4562222,47.0522222 L40.46,47.0522222 C43.5615556,47.0503333 46.5072778,46.0785 48.977,44.3001111 C62.1019444,48.2979444 62.5694444,59.8636111 62.3909444,63.3627778 C62.1548333,67.9905556 59.3970556,69.139 55.5276667,70.2562778 C52.2768889,71.1988333 46.2702222,70.7804444 45.6166667,68.6790556 C45.3503333,67.8196111 45.4702778,67.0905 45.9755556,66.5153333 C46.8406667,65.5255556 48.671,65.1062222 50.6297778,65.4339444 C52.7273889,65.7937778 53.8352222,65.0561667 54.3943333,64.3780556 C56.083,62.3446667 54.8948889,58.5791667 53.4168333,54.5747222 C53.1457778,53.8418333 52.3269444,53.4640556 51.5959444,53.7351111 C50.8621111,54.0061667 50.4862222,54.8202778 50.7572778,55.556 C52.2428889,59.5821667 52.734,61.9423333 52.2136111,62.5694444 C52.1172778,62.6827778 51.7385556,62.747 51.1010556,62.6412222 C48.1477778,62.1397222 45.3645,62.9085 43.8401667,64.6491111 C42.6775556,65.9760556 42.347,67.7062778 42.9089444,69.5177222 C43.0657222,70.0211111 43.3122222,70.4640556 43.6182222,70.8588333 L42.4565556,70.8588333 L40.8897222,59.5746111 C40.8519444,57.9851111 39.5467222,56.7053889 37.9487222,56.7053889 L30.9522778,56.7053889 C31.0807222,56.5042222 31.246,56.2832222 31.4613333,56.0669444 C32.0147778,55.5135 32.0147778,54.6172222 31.4613333,54.0637778 C30.9078889,53.5103333 30.0116111,53.5103333 29.4581667,54.0637778 C28.2832778,55.2386667 27.9045556,56.5231111 27.8648889,56.6647778 C27.8611111,56.6798889 27.8611111,56.6902778 27.8582778,56.7053889 L18.9370556,56.7053889 C20.6927778,53.142 25.3488889,47.1740556 33.065,45.0273333 C35.2381667,46.3051667 37.7579444,47.0522222 40.4562222,47.0522222 Z M44.3652778,78.9385556 C44.0725,79.0858889 43.8175,79.2171667 43.5851667,79.3333333 C43.5889444,79.2757222 43.6031111,79.2228333 43.6031111,79.1652222 C43.6031111,79.1208333 43.6002778,79.0783333 43.5936667,79.0339444 L43.4557778,78.0545556 L43.9355556,78.0545556 C44.2491111,78.0545556 44.5031667,77.7995556 44.5031667,77.4869444 C44.5031667,77.1743333 44.2491111,76.9193333 43.9355556,76.9193333 L43.299,76.9193333 L43.2735,76.7238333 L46.2872222,76.7238333 C46.5998333,76.7238333 46.8538889,76.4707222 46.8538889,76.1571667 C46.8538889,75.8455 46.5998333,75.5905 46.2872222,75.5905 L43.1138889,75.5905 L43.0874444,75.395 L48.6388889,75.395 C48.9515,75.395 49.2055556,75.14 49.2055556,74.8283333 C49.2055556,74.5147778 48.9515,74.2607222 48.6388889,74.2607222 L42.9297222,74.2607222 L42.7191111,72.7439444 L46.393,72.7420556 C47.9626667,73.321 49.8307778,73.5429444 51.5855556,73.5429444 C52.5120556,73.5429444 53.4073889,73.4825 54.2073333,73.3814444 C52.0974444,74.7121667 48.1005556,76.9533333 44.3652778,78.9385556 Z M60.6635556,71.3187778 C62.9783889,70.0182778 65.0004444,67.8026111 65.2195556,63.5072778 C65.6237778,55.6202222 62.1302778,46.1465 51.3862778,42.1222222 C53.7681667,39.4418889 55.0866111,36.0352778 55.0856667,32.419 C55.0837778,24.3543889 48.5208333,17.7933333 40.4524444,17.7933333 C36.5443333,17.7942778 32.8713889,19.3167222 30.1088889,22.0811111 C27.3463889,24.8455 25.8258333,28.5184444 25.8267778,32.4265556 C25.8277222,36.5575556 27.557,40.2862222 30.3213889,42.9486111 C23.1228333,45.6761667 17.8906111,51.6441111 15.9167222,56.508 C15.8902778,56.5722222 15.8751667,56.6392778 15.8581667,56.7053889 L9.00527778,56.7053889 C7.38272222,56.7053889 6.06333333,58.0238333 6.06333333,59.6454444 C6.06333333,59.6888889 6.06616667,59.7323333 6.07277778,59.7757778 L7.6755,71.3187778 L3.1705,71.3187778 L3.1705,3.6125 L71.2498333,16.6099444 L71.2498333,70.8135 C71.2498333,70.856 71.2592778,70.8966111 71.2630556,70.9372222 L66.2291667,70.9391111 C66.1309444,70.9391111 66.0355556,70.9702778 65.9552778,71.0278889 L65.5444444,71.3206667 L60.6635556,71.3206667 L60.6635556,71.3187778 Z M69.4138333,82.6218889 L64.6831111,82.6237778 L64.8559444,82.5057222 L69.1257778,82.5057222 C69.2287222,82.5057222 69.3307222,82.4707778 69.4128889,82.4084444 L80.6300556,73.8838889 L80.9152778,73.8838889 L69.4138333,82.6218889 Z" id="Shape"></path>
                        <path d="M74.6611667,74.9728333 L63.0105,74.9747222 C62.7507778,74.9747222 62.5382778,75.1872222 62.5382778,75.4469444 C62.5382778,75.7076111 62.7507778,75.9191667 63.0105,75.9191667 L74.6611667,75.9172778 C74.9218333,75.9172778 75.1333889,75.7057222 75.1333889,75.4450556 C75.1333889,75.1843889 74.9218333,74.9728333 74.6611667,74.9728333 Z" id="Path"></path>
                        <path d="M76.4074444,73.6477778 L64.8729444,73.6477778 C64.6122778,73.6477778 64.4007222,73.8593333 64.4007222,74.12 C64.4007222,74.3797222 64.6122778,74.5922222 64.8729444,74.5922222 L76.4074444,74.5922222 C76.6671667,74.5922222 76.8796667,74.3797222 76.8796667,74.12 C76.8796667,73.8593333 76.67,73.6477778 76.4074444,73.6477778 Z" id="Path"></path>
                        <path d="M66.7363333,73.2681111 L78.1527778,73.2662222 C78.4125,73.2662222 78.625,73.0537222 78.625,72.794 C78.625,72.5333333 78.4125,72.3217778 78.1527778,72.3217778 L66.7363333,72.3236667 C66.4766111,72.3236667 66.2641111,72.5361667 66.2641111,72.7958889 C66.2641111,73.0556111 66.4766111,73.2681111 66.7363333,73.2681111 Z" id="Path"></path>
                        <path d="M71.1686111,77.6248333 L59.5188889,77.6267222 C59.2591667,77.6267222 59.0466667,77.8382778 59.0466667,78.0989444 C59.0466667,78.3586667 59.2591667,78.5711667 59.5188889,78.5711667 L71.1695556,78.5692778 C71.4302222,78.5692778 71.6417778,78.3567778 71.6417778,78.0970556 C71.6408333,77.8363889 71.4302222,77.6248333 71.1686111,77.6248333 Z" id="Path"></path>
                        <path d="M72.9158333,76.2988333 L61.3813333,76.3007222 C61.1206667,76.3007222 60.9091111,76.5132222 60.9091111,76.7729444 C60.9091111,77.0326667 61.1206667,77.2451667 61.3813333,77.2451667 L72.9158333,77.2432778 C73.1755556,77.2432778 73.3880556,77.0307778 73.3880556,76.7710556 C73.3880556,76.5113333 73.1755556,76.2988333 72.9158333,76.2988333 Z" id="Path"></path>
                        <path d="M25.3394444,13.9012778 L18.8388333,12.5327778 C18.6310556,12.4883889 18.4128889,12.5422222 18.2466667,12.6763333 C18.0804444,12.8104444 17.9850556,13.0125556 17.9850556,13.226 L17.9850556,18.8312778 L15.9337222,18.3996667 L15.9337222,14.5954444 C15.9337222,14.2611111 15.6995,13.9711667 15.3708333,13.9022222 L8.87022222,12.5337222 C8.66244444,12.4893333 8.44427778,12.5431667 8.27805556,12.6772778 C8.11183333,12.8113889 8.01644444,13.0135 8.01644444,13.2269444 L8.01644444,20.8911111 C8.01644444,21.233 8.26105556,21.5267222 8.59727778,21.5871667 L12.7311111,22.3455556 L12.7311111,26.2621667 C12.7311111,26.6040556 12.9757222,26.8977778 13.3119444,26.9582222 L19.8125556,28.1501111 C19.8550556,28.1586111 19.8975556,28.1623889 19.9400556,28.1623889 C20.1043889,28.1623889 20.2658889,28.1047778 20.3933889,27.9980556 C20.5548889,27.863 20.6483889,27.6637222 20.6483889,27.4540556 L20.6483889,21.9687222 L25.0665,22.7781111 C25.109,22.7866111 25.1515,22.7903889 25.194,22.7903889 C25.3583333,22.7903889 25.5198333,22.7327778 25.6473333,22.6260556 C25.8088333,22.491 25.9023333,22.2917222 25.9023333,22.0820556 L25.9023333,14.5945 C25.9023333,14.2601667 25.6681111,13.9702222 25.3394444,13.9012778 Z M24.4856667,21.2311111 L19.4017222,20.2998889 L19.4017222,14.0996111 L24.4856667,15.1696667 L24.4856667,21.2311111 Z M14.1477778,25.6718889 L14.1477778,22.6043333 L14.7031111,22.7063333 C14.688,22.9367778 14.8362778,23.1521111 15.0686111,23.2002778 L18.4223333,23.9067222 C18.4553889,23.9133333 18.4884444,23.9171111 18.5205556,23.9171111 C18.7377778,23.9171111 18.9342222,23.7650556 18.9814444,23.5431111 C19.0352778,23.2871667 18.8718889,23.0368889 18.6168889,22.9830556 L15.8515556,22.4012778 C15.9025556,22.3030556 15.9327778,22.1944444 15.9327778,22.0820556 L15.9327778,21.8941111 L18.3496111,22.4041111 C18.3826667,22.4107222 18.4157222,22.4145 18.4478333,22.4145 C18.6650556,22.4145 18.8615,22.2624444 18.9087222,22.0405 C18.9408333,21.8856111 18.8879444,21.7373333 18.7878333,21.6277778 L19.2307778,21.709 L19.2307778,26.6040556 L14.1477778,25.6718889 Z M9.43311111,14.0996111 L14.5170556,15.1696667 L14.5170556,21.2320556 L9.43311111,20.3008333 L9.43311111,14.0996111 Z M18.2306111,21.4133889 L15.9337222,20.9288889 L15.9337222,19.8465556 L17.9850556,20.2781667 L17.9850556,20.8892222 C17.9850556,21.0998333 18.0823333,21.2821111 18.2306111,21.4133889 Z" id="Shape"></path>
                        <path d="M10.1329444,16.8961111 L13.4866667,17.6025556 C13.5197222,17.6091667 13.5527778,17.6129444 13.5848889,17.6129444 C13.8021111,17.6129444 13.9985556,17.4608889 14.0457778,17.2389444 C14.0996111,16.983 13.9362222,16.7327222 13.6812222,16.6788889 L10.3275,15.9724444 C10.0696667,15.9205 9.82127778,16.0810556 9.76744444,16.337 C9.71361111,16.5929444 9.87794444,16.8422778 10.1329444,16.8961111 Z" id="Path"></path>
                        <path d="M10.1329444,18.2778333 L13.6066111,19.0097778 C13.6396667,19.0163889 13.6727222,19.0201667 13.7048333,19.0201667 C13.9220556,19.0201667 14.1185,18.8681111 14.1657222,18.6461667 C14.2195556,18.3902222 14.0561667,18.1399444 13.8011667,18.0861111 L10.3275,17.3541667 C10.0696667,17.3022222 9.82127778,17.4637222 9.76744444,17.7187222 C9.71455556,17.9727778 9.87794444,18.224 10.1329444,18.2778333 Z" id="Path"></path>
                        <path d="M18.7377778,24.3902778 L15.2641111,23.6583333 C15.0081667,23.6073333 14.7588333,23.7669444 14.7040556,24.0228889 C14.6502222,24.2788333 14.8136111,24.5291111 15.0686111,24.5829444 L18.5422778,25.3148889 C18.5753333,25.3215 18.6083889,25.3252778 18.6405,25.3252778 C18.8577222,25.3252778 19.0541667,25.1732222 19.1013889,24.9512778 C19.1552222,24.6943889 18.9918333,24.4441111 18.7377778,24.3902778 Z" id="Path"></path>
                        <path d="M13.3421667,20.3357778 C13.3752222,20.3423889 13.4082778,20.3461667 13.4403889,20.3461667 C13.6576111,20.3461667 13.8540556,20.1941111 13.9012778,19.9721667 C13.9551111,19.7162222 13.7917222,19.4659444 13.5367222,19.4121111 L10.3275,18.7349444 C10.0696667,18.683 9.82127778,18.8435556 9.76744444,19.0995 C9.71361111,19.3554444 9.877,19.6057222 10.132,19.6595556 L13.3421667,20.3357778 Z" id="Path"></path>
                        <path d="M20.1081667,17.2483889 L23.5837222,17.9803333 C23.6167778,17.9869444 23.6498333,17.9907222 23.6819444,17.9907222 C23.8991667,17.9907222 24.0956111,17.8386667 24.1428333,17.6167222 C24.1966667,17.3607778 24.0332778,17.1105 23.7782778,17.0566667 L20.3027222,16.3247222 C20.0458333,16.2737222 19.7965,16.4333333 19.7426667,16.6892778 C19.6888333,16.9452222 19.8531667,17.1945556 20.1081667,17.2483889 Z" id="Path"></path>
                        <path d="M20.1091111,18.632 L23.3183333,19.3072778 C23.3504444,19.3148333 23.3835,19.3176667 23.4165556,19.3176667 C23.6347222,19.3176667 23.8302222,19.1656111 23.8774444,18.9427222 C23.9312778,18.6877222 23.7678889,18.4374444 23.5119444,18.3836111 L20.3027222,17.7083333 C20.0524444,17.6497778 19.7974444,17.8169444 19.7436111,18.0738333 C19.6907222,18.3269444 19.8531667,18.5781667 20.1091111,18.632 Z" id="Path"></path>
                    </g>
                </g>
            </g>
        </g>
    </g>
</svg>