<?xml version="1.0" encoding="UTF-8"?>
<svg width="89px" height="89px" viewBox="0 0 89 89" version="1.1" xmlns="http://www.w3.org/2000/svg" xmlns:xlink="http://www.w3.org/1999/xlink">
    <!-- Generator: Sketch 53.2 (72643) - https://sketchapp.com -->
    <title>noun_manager_2315916</title>
    <desc>Created with Sketch.</desc>
    <g id="Page-1" stroke="none" stroke-width="1" fill="none" fill-rule="evenodd">
        <g id="Design-Thinking-LP" transform="translate(-1073.000000, -6456.000000)" fill="#8C1515" fill-rule="nonzero">
            <g id="who-should-attend" transform="translate(150.000000, 6310.000000)">
                <g id="noun_manager_2315916" transform="translate(923.000000, 146.000000)">
                    <g id="Group">
                        <path d="M42.1875,39.375 L39.375,39.375 C39.375,43.2520313 36.2207813,46.40625 32.34375,46.40625 C28.4667187,46.40625 25.3125,43.2520313 25.3125,39.375 L22.5,39.375 C22.5,44.8017187 26.915625,49.21875 32.34375,49.21875 C37.771875,49.21875 42.1875,44.8017187 42.1875,39.375 Z" id="Path"></path>
                        <path d="M75.9375,54.84375 C75.9375,52.5178125 74.0446875,50.625 71.71875,50.625 L59.0625,50.625 C56.7365625,50.625 54.84375,52.5178125 54.84375,54.84375 L54.84375,56.21625 C53.555625,55.063125 51.975,54.241875 50.214375,53.8889062 L42.1875,52.284375 L42.1875,51.6473437 C46.4371875,48.5803125 49.21875,43.599375 49.21875,37.96875 L49.21875,37.96875 C52.3209375,37.96875 54.84375,35.4459375 54.84375,32.34375 L54.84375,20.2289062 C54.84375,15.2507812 51.9721875,10.816875 47.4778125,8.77359375 C45.433125,4.2778125 40.9992187,1.40625 36.0210937,1.40625 L29.53125,1.40625 C18.675,1.40625 9.84375,10.2375 9.84375,21.09375 L9.84375,32.34375 C9.84375,35.4459375 12.3665625,37.96875 15.46875,37.96875 L15.46875,37.96875 C15.46875,43.599375 18.2503125,48.5803125 22.5,51.6473438 L22.5,52.284375 L14.4745312,53.8889063 C10.9448438,54.59625 8.08453125,57.1696875 7.01015625,60.6065625 L0.9,80.15625 L42.1875,80.15625 L42.1875,84.375 C42.1875,86.7009375 44.0803125,88.59375 46.40625,88.59375 L84.375,88.59375 C86.7009375,88.59375 88.59375,86.7009375 88.59375,84.375 L88.59375,67.5 L88.59375,60.46875 L88.59375,59.0625 L75.9375,59.0625 L75.9375,54.84375 Z M59.0625,53.4375 L71.71875,53.4375 C72.4935938,53.4375 73.125,54.0675 73.125,54.84375 L73.125,59.0625 L57.65625,59.0625 L57.65625,54.84375 C57.65625,54.0675 58.2876562,53.4375 59.0625,53.4375 Z M53.6892187,59.0625 L45,59.0625 L45,55.715625 L49.6617187,56.6465625 C51.2732812,56.97 52.6753125,57.8376563 53.6892187,59.0625 Z M42.1875,64.0645313 L34.8820312,61.3251562 L41.2425,54.9646875 L42.1875,55.153125 L42.1875,59.0625 L42.1875,60.46875 L42.1875,64.0645313 Z M30.5915625,70.3125 L34.0959375,70.3125 L36.1054688,77.34375 L28.5834375,77.34375 L30.5915625,70.3125 Z M34.4039062,67.5 L30.2835938,67.5 L28.49625,64.8196875 L32.34375,63.376875 L36.19125,64.8196875 L34.4039062,67.5 Z M22.5,55.153125 L23.4435937,54.9646875 L29.8040625,61.3251562 L22.5,64.0645313 L22.5,55.153125 Z M26.0845312,53.6273437 C28.0223437,54.405 30.1303125,54.84375 32.34375,54.84375 C34.5571875,54.84375 36.6651563,54.4035937 38.604375,53.6259375 L32.34375,59.8865625 L26.0845312,53.6273437 Z M49.21875,35.15625 L49.21875,35.15625 L49.21875,29.53125 L49.21875,29.53125 C50.7698437,29.53125 52.03125,30.7926562 52.03125,32.34375 C52.03125,33.8948437 50.7698437,35.15625 49.21875,35.15625 Z M29.53125,4.21875 L36.0210937,4.21875 C40.0429688,4.21875 43.6078125,6.631875 45.10125,10.3654688 L45.3248437,10.9251563 L45.883125,11.14875 C49.618125,12.6421875 52.03125,16.2070313 52.03125,20.2289063 L52.03125,27.5020313 C51.2001562,27.016875 50.248125,26.71875 49.21875,26.71875 L49.21875,26.71875 L49.21875,21.09375 L47.8125,21.09375 C44.7314062,21.09375 41.788125,19.6214062 39.9389062,17.1576563 L38.2246875,14.8696875 L37.09125,15.7767188 C32.8035938,19.2051563 27.4204687,21.09375 21.931875,21.09375 L15.46875,21.09375 L15.46875,26.71875 C14.439375,26.71875 13.4873438,27.016875 12.65625,27.500625 L12.65625,21.09375 C12.65625,11.7885938 20.2260937,4.21875 29.53125,4.21875 Z M12.65625,32.34375 C12.65625,30.7940625 13.9176563,29.53125 15.46875,29.53125 L15.46875,35.15625 C13.9176563,35.15625 12.65625,33.8934375 12.65625,32.34375 Z M18.28125,37.96875 L18.28125,23.90625 L21.9332813,23.90625 C27.57375,23.90625 33.114375,22.1189063 37.6917187,18.8479688 C39.785625,21.6365625 42.9707812,23.4379688 46.40625,23.8260938 L46.40625,37.96875 C46.40625,45.7228125 40.0978125,52.03125 32.34375,52.03125 C24.5896875,52.03125 18.28125,45.7228125 18.28125,37.96875 Z M9.6946875,61.4446875 C10.4610938,58.9907813 12.5057813,57.1514063 15.0257813,56.6465625 L19.6875,55.715625 L19.6875,68.124375 L25.7934375,65.835 L28.00125,69.1467188 L25.6584375,77.34375 L15.721875,77.34375 L16.8553125,70.543125 L14.0807813,70.081875 L12.8714063,77.34375 L4.725,77.34375 L9.6946875,61.4446875 Z M39.0290625,77.34375 L36.68625,69.1453125 L38.8940625,65.8335938 L42.1875,67.0682812 L42.1875,67.5 L42.1875,77.34375 L39.0290625,77.34375 Z M85.78125,67.5 C85.78125,69.8259375 83.8884375,71.71875 81.5625,71.71875 L78.75,71.71875 L78.75,74.53125 L81.5625,74.53125 C83.1515625,74.53125 84.6028125,73.9814063 85.78125,73.0884375 L85.78125,84.375 C85.78125,85.15125 85.1498438,85.78125 84.375,85.78125 L46.40625,85.78125 C45.6314062,85.78125 45,85.15125 45,84.375 L45,73.0884375 C46.1784375,73.9814063 47.6296875,74.53125 49.21875,74.53125 L57.65625,74.53125 L57.65625,75.9375 C57.65625,78.2634375 59.5490625,80.15625 61.875,80.15625 L68.90625,80.15625 C71.2321875,80.15625 73.125,78.2634375 73.125,75.9375 L73.125,74.53125 L75.9375,74.53125 L75.9375,71.71875 L73.125,71.71875 L73.125,68.90625 L57.65625,68.90625 L57.65625,71.71875 L49.21875,71.71875 C46.8928125,71.71875 45,69.8259375 45,67.5 L45,61.875 L85.78125,61.875 L85.78125,67.5 Z M60.46875,75.9375 L60.46875,71.71875 L70.3125,71.71875 L70.3125,75.9375 C70.3125,76.71375 69.6810938,77.34375 68.90625,77.34375 L61.875,77.34375 C61.1001562,77.34375 60.46875,76.71375 60.46875,75.9375 Z" id="Shape"></path>
                        <path d="M28.125,30.234375 C28.125,28.2951562 26.5471875,26.71875 24.609375,26.71875 C22.6715625,26.71875 21.09375,28.2951562 21.09375,30.234375 C21.09375,32.1735938 22.6715625,33.75 24.609375,33.75 C26.5471875,33.75 28.125,32.1735938 28.125,30.234375 Z M23.90625,30.234375 C23.90625,29.8476562 24.22125,29.53125 24.609375,29.53125 C24.9975,29.53125 25.3125,29.8476562 25.3125,30.234375 C25.3125,30.6210938 24.9975,30.9375 24.609375,30.9375 C24.22125,30.9375 23.90625,30.6210938 23.90625,30.234375 Z" id="Shape"></path>
                        <path d="M40.078125,33.75 C42.0159375,33.75 43.59375,32.1735938 43.59375,30.234375 C43.59375,28.2951562 42.0159375,26.71875 40.078125,26.71875 C38.1403125,26.71875 36.5625,28.2951562 36.5625,30.234375 C36.5625,32.1735938 38.1403125,33.75 40.078125,33.75 Z M40.078125,29.53125 C40.46625,29.53125 40.78125,29.8476562 40.78125,30.234375 C40.78125,30.6210938 40.46625,30.9375 40.078125,30.9375 C39.69,30.9375 39.375,30.6210938 39.375,30.234375 C39.375,29.8476562 39.69,29.53125 40.078125,29.53125 Z" id="Shape"></path>
                        <polygon id="Path" points="64.6875 47.8125 67.5 47.8125 67.5 15.46875 63.6257812 15.46875 73.125 4.91484375 82.6242187 15.46875 78.75 15.46875 78.75 50.625 81.5625 50.625 81.5625 18.28125 88.9382812 18.28125 73.125 0.71015625 57.3117187 18.28125 64.6875 18.28125"></polygon>
                        <rect id="Rectangle" x="78.75" y="53.4375" width="2.8125" height="2.8125"></rect>
                        <rect id="Rectangle" x="71.71875" y="45" width="2.8125" height="2.8125"></rect>
                        <rect id="Rectangle" x="71.71875" y="15.46875" width="2.8125" height="26.71875"></rect>
                    </g>
                </g>
            </g>
        </g>
    </g>
</svg>