<?xml version="1.0" encoding="UTF-8"?>
<svg width="94px" height="90px" viewBox="0 0 94 90" version="1.1" xmlns="http://www.w3.org/2000/svg" xmlns:xlink="http://www.w3.org/1999/xlink">
    <!-- Generator: Sketch 53.2 (72643) - https://sketchapp.com -->
    <title>noun_manager_840058</title>
    <desc>Created with Sketch.</desc>
    <g id="Page-1" stroke="none" stroke-width="1" fill="none" fill-rule="evenodd">
        <g id="Design-Thinking-LP" transform="translate(-280.000000, -6456.000000)" fill="#8C1515" fill-rule="nonzero">
            <g id="who-should-attend" transform="translate(150.000000, 6310.000000)">
                <g id="noun_manager_840058" transform="translate(130.000000, 146.000000)">
                    <g id="Group">
                        <path d="M46.5201124,61.35 C42.0732584,61.35 38.051236,59.4128571 34.5639888,55.5921429 C34.225618,55.2203571 34.251236,54.645 34.6205618,54.3053571 C34.9898876,53.9657143 35.5630899,53.9914286 35.9025281,54.3621429 C39.0311236,57.7907143 42.6026966,59.5296429 46.5201124,59.5296429 C50.9370787,59.5296429 54.6079213,56.6496429 56.9082022,54.2346429 C57.2551124,53.8735714 57.8304494,53.8607143 58.191236,54.2067857 C58.5530899,54.5539286 58.5669663,55.1303571 58.2200562,55.4946429 C54.5694944,59.325 50.5239888,61.35 46.5201124,61.35 Z" id="Path"></path>
                        <path d="M92.3453371,89.3089286 C92.3378652,89.3089286 92.3314607,89.3078571 92.3239888,89.3089286 L1.60859551,89.3089286 C1.15707865,89.3089286 0.726910112,89.1171429 0.423764045,88.7828571 C0.120617978,88.4485714 -0.027752809,88.0007143 0.0149438202,87.5496429 C0.682078652,80.5414286 2.09960674,68.4921429 4.0988764,66.5389286 C4.95601124,65.7021429 14.5275281,61.8396429 32.5583146,55.0585714 C28.8938764,50.2414286 27.17,44.7085714 26.5637079,42.3771429 C25.0778652,41.0025 23.9730899,38.3882143 23.9666854,36.0814286 C23.9624157,34.5042857 24.4555618,33.1146429 25.3756742,32.0496429 C23.8300562,29.4278571 19.8923596,22.3114286 23.5012921,13.6082143 C27.6780899,3.53678571 33.6086517,2.37214286 37.7075281,2.37214286 C38.5337079,2.37214286 39.3097191,2.42142857 39.9939326,2.46428571 L40.7304494,2.50821429 C42.0476404,2.57678571 43.8227528,2.18571429 45.7398315,1.77214286 C48.0881461,1.26428571 50.7502809,0.69 53.4892697,0.69 C60.7594382,0.69 65.8456742,4.90285714 69.0383146,13.5696429 C71.4175843,20.0282143 69.7438764,29.2221429 68.2569663,32.2382143 C68.9582584,33.3546429 69.3030337,34.7496429 69.2475281,36.3085714 C69.1642697,38.6282143 68.2089326,41.0207143 66.905618,42.3075 C66.0004494,45.8442857 63.7247191,50.7471429 60.3474157,54.9139286 C69.0308427,57.9042857 88.1194382,64.6071429 90.1731461,66.4189286 C92.3592135,68.3475 93.4437079,80.2317857 93.903764,87.3375 C93.9304494,87.4542857 93.9453933,87.5775 93.9453933,87.7028571 C93.9464607,88.59 93.2291573,89.3089286 92.3453371,89.3089286 Z M3.37837079,86.0946429 L90.6086517,86.0946429 C90.0461236,78.4007143 88.9509551,70.0178571 88.0009551,68.7717857 C86.532191,67.6253571 70.9383146,61.9232143 57.0480337,57.1767857 C56.5303371,57 56.1385955,56.5703571 56.0083708,56.0378571 C55.8781461,55.5042857 56.0286517,54.9428571 56.4065169,54.5442857 C60.4232022,50.3282143 63.1109551,44.6057143 63.909382,41.0710714 C63.9969101,40.6875 64.2210674,40.3467857 64.5412921,40.1175 C65.126236,39.6985714 65.9823034,38.0025 66.0463483,36.1917857 C66.0783708,35.3153571 65.9321348,34.1153571 65.0557865,33.3857143 C65.0547191,33.3857143 65.0536517,33.3846429 65.0525843,33.3835714 C64.371573,32.8178571 64.276573,31.8042857 64.8401685,31.1217857 C65.0194944,30.9042857 65.2436517,30.7457143 65.4880899,30.6503571 C66.4765169,28.6167857 68.0851124,20.2510714 66.0346067,14.6860714 C62.5142697,5.13107143 57.4803371,3.90535714 53.4882022,3.90535714 C51.0897191,3.90535714 48.6037079,4.44214286 46.411236,4.91464286 C44.2753371,5.37642857 42.2568539,5.81035714 40.5639326,5.71821429 L39.7900562,5.67214286 C39.1464045,5.63142857 38.4461798,5.58642857 37.7053933,5.58642857 C34.0409551,5.58642857 29.8385393,6.68571429 26.4558989,14.8435714 C23.3454494,22.3446429 26.9244944,28.3810714 28.271573,30.6525 C28.7551124,31.4678571 29.5631461,32.8317857 28.2598315,33.7403571 C27.5211798,34.2535714 27.1646629,35.0164286 27.1678652,36.0739286 C27.1721348,37.8117857 28.2075281,39.6739286 28.8906742,40.1442857 C29.2173034,40.3692857 29.45,40.7067857 29.5428652,41.0946429 C30.0050562,43.0232143 31.8666292,49.7025 36.4138202,54.6846429 C36.7735393,55.0789286 36.9144382,55.6264286 36.790618,56.1460714 C36.6657303,56.6646429 36.2932022,57.0889286 35.7936517,57.2764286 C25.3415169,61.1946429 8.33438202,67.725 6.29775281,68.8939286 C5.44275281,70.2482143 4.16825843,78.4928571 3.37837079,86.0946429 Z" id="Shape"></path>
                        <path d="M26.7110112,33.8978571 C26.245618,33.8978571 25.8506742,33.5421429 25.8079775,33.0685714 C25.7631461,32.5682143 26.1324719,32.1257143 26.6309551,32.0807143 L27.9908427,31.9596429 C28.556573,30.6707143 30.0968539,27.0857143 30.8323034,24.6075 C32.3373596,19.5353571 32.1398876,16.8503571 32.1377528,16.8225 C32.1057303,16.4335714 32.3245506,16.0660714 32.6821348,15.9107143 C33.0386517,15.7553571 33.4560112,15.8453571 33.7164607,16.1357143 C33.7708989,16.1978571 39.2723596,22.2192857 46.8467416,21.1564286 C49.4042697,20.7985714 52.9950562,18.6 55.6166292,16.9960714 C58.5957865,15.1725 59.711236,14.4921429 60.476573,15.4275 C63.4770787,19.1014286 64.612809,28.0875 64.897809,30.8485714 L66.0228652,30.8935714 C66.5234831,30.915 66.9130899,31.3382143 66.892809,31.8407143 C66.8725281,32.3432143 66.4637079,32.7117857 65.9502809,32.7139286 L64.0342697,32.6357143 C63.5763483,32.6164286 63.2038202,32.2575 63.1664607,31.8 C63.1579213,31.6896429 62.2623596,21.0814286 59.3504494,16.9467857 C58.7494944,17.2135714 57.5550562,17.9442857 56.563427,18.5507143 C53.8062921,20.2382143 50.0297753,22.5492857 47.0986517,22.9596429 C40.9759551,23.8232143 36.1939326,20.7117857 33.8819101,18.7789286 C33.7463483,20.1996429 33.4037079,22.3242857 32.572191,25.1260714 C31.6296629,28.3017857 29.519382,32.9957143 29.4307865,33.1939286 C29.2962921,33.4928571 29.0102247,33.6964286 28.6846629,33.7253571 L26.7932022,33.8946429 C26.7654494,33.8967857 26.7376966,33.8978571 26.7110112,33.8978571 Z" id="Path"></path>
                        <path d="M37.8516292,73.1839286 C37.771573,73.1839286 37.6915169,73.1732143 37.6125281,73.1528571 C37.3670225,73.0853571 37.1610112,72.9171429 37.0446629,72.6889286 L29.747809,58.4185714 C29.519382,57.9717857 29.6955056,57.4221429 30.140618,57.1928571 C30.5846629,56.9614286 31.1333146,57.1392857 31.362809,57.5871429 L38.2070787,70.9714286 L44.9189888,66.7189286 L34.5938764,56.3925 C34.238427,56.0367857 34.238427,55.4603571 34.5917416,55.1046429 C34.9450562,54.7489286 35.5203933,54.7478571 35.8747753,55.1014286 L47.0057865,66.2346429 C47.2011236,66.4307143 47.297191,66.705 47.2673034,66.9803571 C47.2374157,67.2557143 47.0837079,67.5021429 46.8499438,67.65 L38.3373034,73.0425 C38.19,73.1367857 38.0224157,73.1839286 37.8516292,73.1839286 Z" id="Path"></path>
                        <path d="M55.3764607,73.1839286 C55.2110112,73.1839286 55.0466292,73.1389286 54.9025281,73.05 L46.0397753,67.6028571 C45.802809,67.4571429 45.6458989,67.2117857 45.612809,66.9353571 C45.5797191,66.6589286 45.6736517,66.3825 45.8689888,66.1853571 L56.9199438,54.9942857 C57.272191,54.6385714 57.8475281,54.6353571 58.2029775,54.9889286 C58.558427,55.3425 58.5616292,55.9189286 58.2083146,56.2767857 L47.9643258,66.6514286 L55.0146067,70.9853571 L61.8652809,57.5882143 C62.0937079,57.1403571 62.6402247,56.9625 63.0874719,57.1939286 C63.5325843,57.4232143 63.7097753,57.9728571 63.4802809,58.4196429 L56.183427,72.69 C56.0681461,72.9160714 55.8642697,73.0832143 55.6208989,73.1517857 C55.5408427,73.1732143 55.4586517,73.1839286 55.3764607,73.1839286 Z" id="Path"></path>
                        <path d="M56.0094382,36.7339286 L52.5510112,36.7339286 C50.5677528,36.7339286 48.9538202,35.1139286 48.9538202,33.1232143 L48.9538202,31.9660714 C48.9538202,29.9753571 50.5677528,28.3564286 52.5510112,28.3564286 L56.0094382,28.3564286 C57.9926966,28.3564286 59.6066292,29.9753571 59.6066292,31.9660714 L59.6066292,33.1232143 C59.6066292,35.1139286 57.9926966,36.7339286 56.0094382,36.7339286 Z M52.5499438,30.1767857 C51.5668539,30.1767857 50.7673596,30.9792857 50.7673596,31.9660714 L50.7673596,33.1232143 C50.7673596,34.11 51.5668539,34.9135714 52.5499438,34.9135714 L56.0083708,34.9135714 C56.9914607,34.9135714 57.7909551,34.11 57.7909551,33.1232143 L57.7909551,31.9660714 C57.7909551,30.9792857 56.9914607,30.1767857 56.0083708,30.1767857 L52.5499438,30.1767857 Z" id="Shape"></path>
                        <path d="M41.407191,36.7339286 L37.948764,36.7339286 C35.9655056,36.7339286 34.351573,35.1139286 34.351573,33.1232143 L34.351573,31.9660714 C34.351573,29.9753571 35.9655056,28.3564286 37.948764,28.3564286 L41.407191,28.3564286 C43.3904494,28.3564286 45.004382,29.9753571 45.004382,31.9660714 L45.004382,33.1232143 C45.004382,35.1139286 43.3904494,36.7339286 41.407191,36.7339286 Z M37.948764,30.1767857 C36.9656742,30.1767857 36.1661798,30.9792857 36.1661798,31.9660714 L36.1661798,33.1232143 C36.1661798,34.11 36.9656742,34.9135714 37.948764,34.9135714 L41.407191,34.9135714 C42.3902809,34.9135714 43.1897753,34.11 43.1897753,33.1232143 L43.1897753,31.9660714 C43.1897753,30.9792857 42.3902809,30.1767857 41.407191,30.1767857 L37.948764,30.1767857 Z" id="Shape"></path>
                        <path d="M35.2588764,33.6482143 L28.7262921,33.6482143 C28.2256742,33.6482143 27.8189888,33.2410714 27.8189888,32.7375 C27.8189888,32.2339286 28.2256742,31.8267857 28.7262921,31.8267857 L35.2588764,31.8267857 C35.7594944,31.8267857 36.1661798,32.2339286 36.1661798,32.7375 C36.1661798,33.2410714 35.7594944,33.6482143 35.2588764,33.6482143 Z" id="Path"></path>
                        <path d="M49.8600562,33.6482143 L44.0960112,33.6482143 C43.5953933,33.6482143 43.1887079,33.2410714 43.1887079,32.7375 C43.1887079,32.2339286 43.5953933,31.8267857 44.0960112,31.8267857 L49.8600562,31.8267857 C50.3606742,31.8267857 50.7673596,32.2339286 50.7673596,32.7375 C50.7673596,33.2410714 50.3617416,33.6482143 49.8600562,33.6482143 Z" id="Path"></path>
                        <path d="M66.7689888,33.6482143 L58.6993258,33.6482143 C58.1987079,33.6482143 57.7920225,33.2410714 57.7920225,32.7375 C57.7920225,32.2339286 58.1987079,31.8267857 58.6993258,31.8267857 L66.7689888,31.8267857 C67.2696067,31.8267857 67.6762921,32.2339286 67.6762921,32.7375 C67.6762921,33.2410714 67.2696067,33.6482143 66.7689888,33.6482143 Z" id="Path"></path>
                        <path d="M48.601573,76.8642857 C48.6005056,76.8642857 48.5983708,76.8642857 48.596236,76.8642857 L44.1216292,76.8396429 C43.9177528,76.8385714 43.7192135,76.7689286 43.5591011,76.6392857 C43.1609551,76.3189286 39.666236,73.4228571 39.666236,70.5375 C39.666236,70.0339286 40.0729213,69.6267857 40.5735393,69.6267857 C41.0741573,69.6267857 41.4808427,70.0339286 41.4808427,70.5375 C41.4808427,72.1146429 43.4480899,74.145 44.4578652,75.0203571 L48.2578652,75.0428571 C49.5376966,73.8685714 51.3224157,71.7975 51.3224157,70.5385714 C51.3224157,70.035 51.7291011,69.6278571 52.2297191,69.6278571 C52.7303371,69.6278571 53.1370225,70.035 53.1370225,70.5385714 C53.1370225,73.1464286 49.5985393,76.2932143 49.1950562,76.6435714 C49.0306742,76.7860714 48.8193258,76.8642857 48.601573,76.8642857 Z" id="Path"></path>
                        <path d="M51.0128652,88.035 C50.5955056,88.035 50.2187079,87.7435714 50.1269101,87.3160714 L47.715618,76.1464286 C47.6088764,75.6557143 47.9205618,75.1703571 48.4094382,75.0632143 C48.8983146,74.9582143 49.3818539,75.2678571 49.4885955,75.7607143 L51.8998876,86.9303571 C52.0066292,87.4210714 51.6949438,87.9064286 51.2060674,88.0135714 C51.1409551,88.0275 51.0758427,88.035 51.0128652,88.035 Z" id="Path"></path>
                        <path d="M41.7914607,88.035 C41.7295506,88.035 41.666573,88.0285714 41.6046629,88.0146429 C41.1147191,87.9107143 40.7998315,87.4285714 40.9023034,86.9367857 L43.2388764,75.7425 C43.3424157,75.2485714 43.8259551,74.9292857 44.3126966,75.0375 C44.8026404,75.1414286 45.1175281,75.6235714 45.0150562,76.1153571 L42.6784831,87.3096429 C42.5888202,87.7403571 42.2120225,88.035 41.7914607,88.035 Z" id="Path"></path>
                        <path d="M36.0263483,88.4196429 L19.5027528,88.4196429 C19.0021348,88.4196429 18.5954494,88.0125 18.5954494,87.5089286 L18.5954494,79.0221429 C18.5954494,78.5185714 19.0021348,78.1114286 19.5027528,78.1114286 L36.0263483,78.1114286 C36.5269663,78.1114286 36.9336517,78.5185714 36.9336517,79.0221429 L36.9336517,87.5089286 C36.9347191,88.0135714 36.5280337,88.4196429 36.0263483,88.4196429 Z M20.4111236,86.5992857 L35.1201124,86.5992857 L35.1201124,79.9328571 L20.4111236,79.9328571 L20.4111236,86.5992857 Z" id="Shape"></path>
                    </g>
                </g>
            </g>
        </g>
    </g>
</svg>