<?xml version="1.0" encoding="UTF-8"?>
<svg width="71px" height="72px" viewBox="0 0 71 72" version="1.1" xmlns="http://www.w3.org/2000/svg" xmlns:xlink="http://www.w3.org/1999/xlink">
    <!-- Generator: Sketch 53.2 (72643) - https://sketchapp.com -->
    <title>noun_expert_2255224</title>
    <desc>Created with Sketch.</desc>
    <g id="Page-1" stroke="none" stroke-width="1" fill="none" fill-rule="evenodd">
        <g id="Desktop-HD-Copy" transform="translate(-951.000000, -2899.000000)" fill="#FFFFFF" fill-rule="nonzero">
            <g id="noun_expert_2255224" transform="translate(951.000000, 2899.000000)">
                <g id="Group">
                    <path d="M40.6849103,27.0199824 C40.5717242,26.7554537 40.443574,26.4804581 40.3058722,26.2059383 C39.5555964,24.6953656 38.565417,23.321815 37.3630336,22.1238238 C34.4219462,19.1938678 30.512648,17.58037 26.3553274,17.58037 C20.399287,17.58037 15.0539103,20.8850749 12.4063744,26.2024493 C12.2675583,26.4788722 12.1395673,26.7540264 12.025426,27.0206167 C11.2049462,28.9427313 10.7888161,30.9847401 10.7888161,33.0900264 L10.7888161,34.8430837 L12.69913,34.8430837 L12.69913,33.0898678 C12.69913,31.2421322 13.064,29.450696 13.783074,27.7659912 C13.8817735,27.5352423 13.9933677,27.2956123 14.1162646,27.0507489 C16.4403206,22.3831189 21.1299821,19.4834537 26.3551682,19.4834537 C30.002435,19.4834537 33.431926,20.8990308 36.0119641,23.4694626 C37.0674126,24.5207577 37.9359686,25.7254097 38.5955045,27.0532863 C38.7177646,27.2968811 38.8293587,27.536511 38.9269439,27.7653568 C39.6464955,29.450696 40.0112063,31.2421322 40.0112063,33.0898678 L40.0112063,34.8429251 L41.9215202,34.8429251 L41.9215202,33.0898678 C41.9215202,31.7120352 41.7421099,30.3614802 41.388861,29.0535859 C44.4036547,29.3292159 46.7733991,31.8614273 46.7733991,34.9357004 L46.7733991,40.4673304 C46.7733991,44.0708194 49.7157601,47.0020441 53.3329395,47.0020441 C56.9499596,47.0020441 59.8923206,44.0708194 59.8923206,40.4673304 L59.8923206,37.7088106 L64.8642309,37.7088106 L64.8642309,34.9109604 L65.9580448,34.9109604 L65.9580448,33.0078767 L64.8642309,33.0078767 L64.8642309,32.0239824 L65.9580448,32.0239824 L65.9580448,30.1208987 L64.8642309,30.1208987 L64.8642309,29.1660264 C64.8640717,25.7177974 66.0381188,22.4172159 68.1695516,19.8724758 C69.9790964,17.7121586 70.9756435,14.9707665 70.9756435,12.1529339 C70.9756435,8.87899559 69.6806099,5.81614097 67.3296502,3.52815859 C64.9788498,1.24096916 61.8769776,0.0248986784 58.5834372,0.100863436 C52.0742018,0.253427313 46.7761054,5.65770925 46.7732399,12.1475419 C46.7721256,14.9704493 47.7707422,17.7161233 49.584426,19.8788194 C51.7212713,22.4259383 52.8977063,25.7298502 52.8977063,29.1820441 L52.8977063,30.1208987 L51.9164417,30.1208987 L51.9164417,32.0239824 L52.8977063,32.0239824 L52.8977063,33.0078767 L51.9164417,33.0078767 L51.9164417,34.9109604 L52.8977063,34.9109604 L52.8977063,37.7088106 L57.9820067,37.7088106 L57.9820067,40.4673304 C57.9820067,43.0212687 55.8962623,45.0989604 53.3329395,45.0989604 C50.7692982,45.0989604 48.683713,43.0209515 48.683713,40.4673304 L48.683713,34.9357004 C48.683713,30.6285463 45.1663475,27.1244934 40.8428296,27.1244934 C40.8429888,27.1244934 40.7452444,27.1589075 40.6849103,27.0199824 Z M51.0505919,18.6587841 C49.523296,16.8380088 48.6825987,14.5260793 48.683713,12.148652 C48.6862601,6.68331278 53.1471614,2.1322467 58.628648,2.00378855 C61.3992399,1.93654626 64.0154148,2.96389427 65.9948184,4.88981498 C67.9748587,6.81652863 69.0654888,9.39615859 69.0654888,12.1530925 C69.0654888,14.5260793 68.2263834,16.8346784 66.7030673,18.6532335 C64.6891188,21.0576211 63.4321323,24.0510132 63.0674215,27.2340793 L61.447157,27.2340793 L61.447157,25.3771454 L59.536843,25.3771454 L59.536843,27.2340793 L58.2120404,27.2340793 L58.2120404,25.3771454 L56.3017265,25.3771454 L56.3017265,27.2340793 L54.6929238,27.2340793 C54.3251883,24.0529163 53.0662915,21.0619031 51.0505919,18.6587841 Z M62.953917,35.8058855 L54.8080202,35.8058855 L54.8080202,34.9112775 L62.953917,34.9112775 L62.953917,35.8058855 L62.953917,35.8058855 Z M62.953917,33.0081938 L54.8080202,33.0081938 L54.8080202,32.0242996 L62.953917,32.0242996 L62.953917,33.0081938 L62.953917,33.0081938 Z M54.8080202,30.1212159 L54.8080202,29.1823612 C54.8080202,29.1672952 54.807065,29.1525463 54.807065,29.1373216 L62.9545538,29.1373216 C62.9545538,29.1471542 62.953917,29.1566696 62.953917,29.1665022 L62.953917,30.1213744 L54.8080202,30.1212159 L54.8080202,30.1212159 Z" id="Shape"></path>
                    <rect id="Rectangle" x="25.4441076" y="41.6792775" width="1.9103139" height="2.87048458"></rect>
                    <rect id="Rectangle" x="25.399852" y="2.98546256" width="1.9103139" height="9.94170925"></rect>
                    <polygon id="Rectangle" transform="translate(39.067494, 11.471577) rotate(135.000000) translate(-39.067494, -11.471577) " points="34.0855165 10.5087941 44.0458566 10.5276789 44.0494717 12.4343594 34.0891316 12.4154746"></polygon>
                    <polygon id="Rectangle" transform="translate(13.642551, 11.471256) rotate(-45.000000) translate(-13.642551, -11.471256) " points="12.6797688 6.48927821 14.5864493 6.49289327 14.6053341 16.4532334 12.6986536 16.4496183"></polygon>
                    <path d="M54.1839843,19.0029251 L58.9368453,16.513533 L63.6898655,19.0029251 L62.7823072,13.7302731 L66.6274507,9.99626432 L61.313435,9.22710132 L58.9365269,4.42990308 L56.5600964,9.22710132 L51.2460807,9.99626432 L55.0912242,13.7302731 L54.1839843,19.0029251 Z M57.8293408,10.9663612 L58.9371637,8.7299207 L60.0453049,10.9663612 L62.5228229,11.3249339 L60.7299933,13.0657797 L61.1529686,15.5239295 L58.9370045,14.3633656 L56.7210404,15.5239295 L57.1444933,13.0657797 L55.3516637,11.3249339 L57.8293408,10.9663612 Z" id="Shape"></path>
                    <path d="M0.442237668,62.7139031 C0.164923767,64.243348 0.0243565022,65.8041938 0.0243565022,67.3539383 L0.0243565022,71.9023084 L52.685343,71.9023084 L52.685343,67.2905022 C52.685343,65.7315595 52.544139,64.1638943 52.2655516,62.6319119 C51.9337937,60.8003524 51.0555269,59.1397533 49.7265852,57.8304317 C49.1426659,57.2542731 48.4761256,56.7569339 47.7457489,56.3533216 C46.8598408,55.8635947 45.9000673,55.5281762 44.8930135,55.3557885 L33.2103296,52.9564758 L33.2103296,51.0724229 C36.0258139,49.1696564 38.0041031,46.1297974 38.4826368,42.621304 C38.5615964,42.6271718 38.6408744,42.630978 38.7207892,42.630978 C40.4653834,42.630978 41.8847466,41.2176211 41.8847466,39.4802643 C41.8847466,37.7430661 40.4653834,36.3297093 38.7207892,36.3297093 C38.6637982,36.3297093 38.606648,36.3331982 38.5499753,36.3365286 C38.3812309,35.2100617 37.7568767,34.2157004 36.8060179,33.6027489 L36.8056996,33.6027489 C35.3643677,32.6735683 34.2575,29.88 33.7848565,28.6870837 C33.5124776,27.9995947 32.9145493,27.4979736 32.1857646,27.3455683 C31.4569798,27.1930044 30.7063857,27.4123348 30.1789798,27.9329868 C25.555861,32.4946784 19.0846726,33.5594537 16.5170516,33.8055859 C15.1826973,33.9335683 14.1705493,35.0105551 14.1176973,36.3314537 C14.1044843,36.3312952 14.0912713,36.3298678 14.0780583,36.3298678 C12.3333049,36.3298678 10.9137825,37.7432247 10.9137825,39.4805815 C10.9137825,41.2179383 12.3333049,42.6312952 14.0780583,42.6312952 C14.128204,42.6312952 14.1780314,42.6276476 14.2280179,42.6251101 C14.7106906,46.158185 16.715565,49.215489 19.5635247,51.1142907 L19.5635247,52.9620264 L7.83021749,55.3557885 C5.82295516,55.6980264 3.97090583,56.720141 2.61474215,58.2335683 C1.50071076,59.4721586 0.754573991,60.9928811 0.455769058,62.6382555 L0.442237668,62.7139031 Z M39.9744327,39.47963 C39.9744327,40.1675947 39.4120045,40.7272599 38.7207892,40.7272599 C38.6790807,40.7272599 38.6381682,40.7213921 38.5974148,40.7172687 L38.5974148,38.241674 C38.6384865,38.2378678 38.6792399,38.2318414 38.7207892,38.2318414 C39.4120045,38.2321586 39.9744327,38.7918238 39.9744327,39.47963 Z M26.3868475,58.5758062 L28.5447063,60.1231718 L28.5447063,63.2575507 L24.3593677,60.0296035 L26.3868475,58.5758062 Z M24.2302623,62.3362996 L28.5447063,65.6636828 L28.5447063,68.9242996 L24.2302623,65.5967577 L24.2302623,62.3362996 Z M24.2302623,68.0035242 L26.8179417,69.9992247 L24.2302623,69.9992247 L24.2302623,68.0035242 Z M30.4550202,61.4925991 L33.2103296,63.4681586 L33.2103296,54.899207 L35.1327422,55.2939383 L35.1327422,69.9992247 L30.4550202,69.9992247 L30.4550202,61.4925991 L30.4550202,61.4925991 Z M31.3000157,59.7536564 L28.1031054,57.4615507 L31.3000157,55.462837 L31.3000157,59.7536564 Z M21.4736794,59.7536564 L21.4736794,55.4721938 L24.6174193,57.4994537 L21.4736794,59.7536564 Z M22.3199484,61.4916476 L22.3199484,69.9992247 L17.6613296,69.9992247 L17.6613296,55.2920352 L19.5633655,54.9042819 L19.5633655,63.4684758 L22.3199484,61.4916476 Z M44.5563206,57.2284229 C45.3559462,57.363859 46.1173655,57.629022 46.8189283,58.0172511 C47.3964798,58.3364934 47.9226121,58.72837 48.3825202,59.1828899 C49.4316009,60.2164229 50.1242489,61.5257445 50.3858027,62.9703436 C50.6441726,64.39163 50.7750291,65.8451101 50.7750291,67.2905022 L50.7750291,69.9992247 L37.0430561,69.9992247 L37.0430561,55.6864493 L44.5230493,57.2227137 L44.5563206,57.2284229 Z M12.8239372,39.47963 C12.8239372,38.7916652 13.3865247,38.2321586 14.0778991,38.2321586 C14.0895202,38.2321586 14.1008229,38.234696 14.1124439,38.2350132 L14.1124439,40.7247225 C14.1008229,40.7250396 14.0895202,40.7277357 14.0778991,40.7277357 C13.3863655,40.7277357 12.8239372,40.1675947 12.8239372,39.47963 Z M16.0227578,40.9724405 L16.0227578,36.4386608 C16.0227578,36.0539207 16.3139215,35.7361057 16.6998049,35.6991542 C19.4711928,35.4335154 26.4634193,34.2767577 31.5230448,29.2843348 C31.590861,29.2175683 31.6666368,29.2004405 31.7263341,29.2004405 C31.7521233,29.2004405 31.7748879,29.2036123 31.7927175,29.2072599 C31.8516188,29.21963 31.9578004,29.2591189 32.007787,29.3851982 C32.5934574,30.8634185 33.8120785,33.9394361 35.7680807,35.2000705 L35.7680807,35.2000705 C36.3351256,35.5654626 36.6871009,36.2375683 36.6871009,36.9537621 L36.6871009,40.9727577 C36.6871009,46.6482291 32.0522018,51.2655859 26.355009,51.2655859 C20.6578161,51.2655859 16.0227578,46.6482291 16.0227578,40.9724405 Z M26.355009,53.168511 C28.1142489,53.168511 29.7865695,52.7942379 31.3000157,52.1257797 L31.3000157,53.2167225 L26.3180762,56.3293744 L21.4736794,53.2056211 L21.4736794,52.154326 C22.9702511,52.8051806 24.6204439,53.168511 26.355009,53.168511 Z M1.9346704,67.3539383 C1.9346704,65.9175859 2.06504933,64.4699736 2.32326009,63.0463084 L2.33647309,62.9703436 C2.57112332,61.6781498 3.15934081,60.4788899 4.03840359,59.5016564 C5.112,58.3036652 6.57768834,57.4964405 8.16563677,57.2290573 L15.7510157,55.681533 L15.7510157,69.9990661 L1.9346704,69.9990661 L1.9346704,67.3539383 L1.9346704,67.3539383 Z" id="Shape"></path>
                </g>
            </g>
        </g>
    </g>
</svg>