<?xml version="1.0" encoding="UTF-8"?>
<svg width="86px" height="90px" viewBox="0 0 86 90" version="1.1" xmlns="http://www.w3.org/2000/svg" xmlns:xlink="http://www.w3.org/1999/xlink">
    <!-- Generator: Sketch 53.2 (72643) - https://sketchapp.com -->
    <title>noun_Designer_2068893</title>
    <desc>Created with Sketch.</desc>
    <g id="Page-1" stroke="none" stroke-width="1" fill="none" fill-rule="evenodd">
        <g id="Design-Thinking-LP" transform="translate(-1070.000000, -6715.000000)" fill="#8C1515" fill-rule="nonzero">
            <g id="who-should-attend" transform="translate(150.000000, 6310.000000)">
                <g id="noun_Designer_2068893" transform="translate(920.000000, 405.000000)">
                    <path d="M44.4164063,37.96875 L42.890625,39.5015625 L41.4070313,37.96875 C40.8575511,37.4192699 39.9666677,37.4192699 39.4171875,37.96875 C38.8677074,38.5182302 38.8677074,39.4091136 39.4171875,39.9585938 L41.9132813,42.4546875 C42.1770491,42.718749 42.5349714,42.8671219 42.9082031,42.8671219 C43.2814349,42.8671219 43.6393571,42.718749 43.903125,42.4546875 L46.40625,39.9867188 C46.9634966,39.4372386 46.9697926,38.5400592 46.4203124,37.9828126 C45.8708323,37.4255659 44.9736529,37.4192699 44.4164063,37.96875 L44.4164063,37.96875 Z" id="Path"></path>
                    <path d="M35.859375,35.15625 C37.5136367,35.1544575 39.0832416,34.424571 40.1506456,33.1607539 C41.2180496,31.8969367 41.6750221,30.227335 41.4,28.5960938 C42.252358,27.8464049 43.528892,27.8464049 44.38125,28.5960938 C43.9015412,31.3857799 45.5695756,34.0973732 48.2758337,34.9272144 C50.9820918,35.7570557 53.8834365,34.4466071 55.0499926,31.8675343 C56.2165487,29.2884616 55.2848746,26.244277 52.8746879,24.759868 C50.4645013,23.2754591 47.326698,23.8132947 45.5484375,26.015625 C43.9272351,24.9735414 41.8469836,24.9735414 40.2257813,26.015625 C38.5844671,23.9656756 35.7431286,23.3241768 33.3802732,24.4700909 C31.0174179,25.6160051 29.7618668,28.2443728 30.355331,30.8024981 C30.9487952,33.3606234 33.2333375,35.1677183 35.859375,35.15625 Z M49.921875,26.71875 C51.4751759,26.71875 52.734375,27.9779491 52.734375,29.53125 C52.734375,31.0845509 51.4751759,32.34375 49.921875,32.34375 C48.3685741,32.34375 47.109375,31.0845509 47.109375,29.53125 C47.109375,27.9779491 48.3685741,26.71875 49.921875,26.71875 Z M35.859375,26.71875 C37.4126759,26.71875 38.671875,27.9779491 38.671875,29.53125 C38.671875,31.0845509 37.4126759,32.34375 35.859375,32.34375 C34.3060741,32.34375 33.046875,31.0845509 33.046875,29.53125 C33.046875,27.9779491 34.3060741,26.71875 35.859375,26.71875 Z" id="Shape"></path>
                    <path d="M78.4617187,88.678125 L85.2328125,79.5375 C85.8644168,78.6843309 85.9618558,77.5482344 85.4847537,76.5999754 C85.0076517,75.6517164 84.037299,75.052863 82.9757812,75.0515625 L78.7570312,75.0515625 L78.7570312,47.8125 C78.7570312,46.2591991 77.4978321,45 75.9445312,45 L57.8460937,45 C59.5648879,41.9358213 60.8812194,38.662717 61.7625,35.2617187 C62.198068,33.5868639 62.4596099,31.8715259 62.5429687,30.1429687 C64.1395688,28.7514837 65.2504841,26.886821 65.7140625,24.8203125 C66.4734375,21.796875 66.7125,15.46875 59.7304687,7.5515625 C47.925,-5.8078125 36.9773438,2.04609375 32.8570312,5.01328125 C32.3648437,5.36484375 31.9429688,5.67421875 31.6546875,5.84296875 C30.9997097,6.07798804 30.3023412,6.17144979 29.6085937,6.1171875 C26.71875,6.16640625 22.3171875,6.24375 20.390625,15.0046875 C18.0492188,25.7695312 22.0148437,31.33125 23.4632812,32.934375 C24.0375346,37.145704 25.3313707,41.2269959 27.2882813,45 L9.84375,45 C8.29044914,45 7.03125,46.2591991 7.03125,47.8125 L7.03125,75.0515625 L2.8125,75.0515625 C1.75098229,75.052863 0.780629598,75.6517164 0.303527501,76.5999754 C-0.173574596,77.5482344 -0.0761355571,78.6843309 0.55546875,79.5375 L7.3265625,88.678125 C7.92417655,89.4748318 8.8486082,89.9602875 9.84375,90 L75.9375,90 C76.9325194,89.9526201 77.8560457,89.4689907 78.4617187,88.678125 Z M78.75,77.8640625 L82.96875,77.8640625 L78.75,83.559375 L78.75,77.8640625 Z M7.03125,83.559375 L2.8125,77.8640625 L7.03125,77.8640625 L7.03125,83.559375 Z M23.1609375,15.6023437 C24.5671875,9.02109375 27.0492187,8.97890625 29.6578125,8.9296875 C30.8459245,9.00357077 32.0323712,8.76094364 33.0960937,8.2265625 C33.4828125,7.99453125 33.9328125,7.67109375 34.5023437,7.26328125 C36.8859375,5.57578125 40.7390625,2.8125 45.4640625,2.8125 C49.0851562,2.8125 53.1984375,4.44375 57.6210937,9.41484375 C63.7523437,16.3617187 63.61875,21.6210937 62.9859375,24.1382812 C62.6770549,25.5777874 61.9420492,26.8909976 60.8765625,27.9070312 C59.3578125,25.734375 59.765625,22.0710937 59.765625,22.0359375 C59.8155931,21.6167713 59.6746167,21.1973304 59.3816236,20.8934353 C59.0886306,20.5895402 58.6746176,20.4333409 58.2539062,20.4679687 C56.4915128,20.6347805 54.713533,20.4507691 53.0226562,19.9265625 C50.289316,18.9850472 47.9923244,17.0804688 46.5609375,14.56875 C46.3387569,14.196736 45.9574804,13.9479228 45.5274941,13.8943463 C45.0975078,13.8407697 44.6668326,13.9884131 44.3601562,14.2945312 C43.6178147,15.0320721 42.8000456,15.6895867 41.9203125,16.25625 L41.8570312,16.2984375 C40.3690711,17.2606878 38.767867,18.0353116 37.0898437,18.6046875 C34.0663764,19.617414 30.9262989,20.2411765 27.7453125,20.4609375 C27.2917563,20.5059847 26.8881623,20.7680587 26.6625,21.1640625 C26.4276807,21.5570184 26.398826,22.0396791 26.5851562,22.4578125 C26.6414062,22.584375 27.7804687,25.3617187 24.778125,30.0445312 C23.4070312,28.0054687 21.4453125,23.4914062 23.1609375,15.6023437 Z M26.2898438,32.7867187 C29.4539063,28.4695312 29.8054688,25.0523437 29.5804688,23.1117187 C32.4532003,22.8123328 35.28335,22.1920583 38.0179688,21.2625 C39.8980447,20.621079 41.6926168,19.7521282 43.3617188,18.675 L43.4039063,18.675 C43.9867443,18.2992893 44.5478017,17.8908208 45.084375,17.4515625 C46.8314565,19.8672525 49.2897825,21.6765805 52.115625,22.6265625 C53.6517651,23.1050114 55.2528424,23.342208 56.8617188,23.3296875 C56.8617188,25.0171875 57.1640625,27.675 58.6054688,29.6578125 C58.902506,30.0675358 59.2497458,30.4383973 59.6390625,30.7617187 C59.5326338,32.0435415 59.3162121,33.3138429 58.9921875,34.5585937 C58.058497,38.244044 56.5670616,41.7651594 54.5695313,45 L30.4875,45 C28.318531,41.2355282 26.8934539,37.0891982 26.2898438,32.7867187 L26.2898438,32.7867187 Z M9.84375,47.8125 L75.9375,47.8125 L75.9375,87.1875 L9.84375,87.1875 L9.84375,47.8125 Z" id="Shape"></path>
                    <path d="M42.890625,55.9898438 C36.6774216,55.9898438 31.640625,61.0266403 31.640625,67.2398438 C31.640625,73.4530472 36.6774216,78.4898438 42.890625,78.4898438 C49.1038284,78.4898438 54.140625,73.4530472 54.140625,67.2398438 C54.140625,61.0266403 49.1038284,55.9898438 42.890625,55.9898438 Z M42.890625,75.6773438 C38.2307224,75.6773438 34.453125,71.8997463 34.453125,67.2398438 C34.453125,62.5799412 38.2307224,58.8023438 42.890625,58.8023438 C47.5505276,58.8023438 51.328125,62.5799412 51.328125,67.2398438 C51.328125,71.8997463 47.5505276,75.6773438 42.890625,75.6773438 Z" id="Shape"></path>
                </g>
            </g>
        </g>
    </g>
</svg>