<?xml version="1.0" encoding="UTF-8"?>
<svg width="99px" height="98px" viewBox="0 0 99 98" version="1.1" xmlns="http://www.w3.org/2000/svg" xmlns:xlink="http://www.w3.org/1999/xlink">
    <!-- Generator: Sketch 53.2 (72643) - https://sketchapp.com -->
    <title>Group 6</title>
    <desc>Created with Sketch.</desc>
    <g id="Page-1" stroke="none" stroke-width="1" fill="none" fill-rule="evenodd">
        <g id="Design-Thinking-LP" transform="translate(-415.000000, -7229.000000)">
            <g id="eligibility" transform="translate(0.000000, 6987.000000)">
                <g id="Group-6" transform="translate(412.000000, 243.000000)">
                    <text id="50%" font-family="AmericanTypewriter, American Typewriter" font-size="50" font-weight="normal" fill="#FFFFFF">
                        <tspan x="0.125" y="95">50%</tspan>
                    </text>
                    <g id="noun_degree_801261" transform="translate(10.000000, 0.000000)" stroke="#FFFFFF" stroke-linejoin="round" stroke-width="2">
                        <g id="Group">
                            <g>
                                <ellipse id="Oval" cx="42.5" cy="13.5473684" rx="3.91269841" ry="2.6"></ellipse>
                                <path d="M83.6507937,12.5894737 L42.7698413,0.684210526 C42.6349206,0.684210526 42.5,0.684210526 42.2301587,0.684210526 L1.34920635,12.5894737 C0.53968254,12.8631579 0.53968254,13.9578947 1.34920635,14.2315789 L42.3650794,26.1368421 C42.5,26.1368421 42.6349206,26.1368421 42.9047619,26.1368421 L83.6507937,14.3684211 C84.5952381,14.0947368 84.5952381,12.8631579 83.6507937,12.5894737 Z" id="Path"></path>
                                <polyline id="Path" points="38.8571429 14.5052632 23.8809524 20.2526316 23.8809524 30.5157895"></polyline>
                                <path d="M29.547619,51.7263158 L26.7142857,37.3578947 C27.5238095,36.6736842 27.9285714,35.5789474 27.9285714,34.4842105 C27.9285714,32.2947368 26.1746032,30.3789474 23.8809524,30.3789474 C21.7222222,30.3789474 19.8333333,32.1578947 19.8333333,34.4842105 C19.8333333,35.5789474 20.2380952,36.6736842 21.047619,37.3578947 L18.2142857,51.7263158 L29.547619,51.7263158 Z" id="Path"></path>
                                <path d="M26.7142857,37.7684211 C31.8412698,39.6842105 36.968254,41.3263158 41.5555556,42.1473684 C42.0952381,42.2842105 42.6349206,42.2842105 43.1746032,42.1473684 C50.4603175,40.7789474 58.1507937,38.1789474 66.1111111,34.4842105 C67.8650794,33.6631579 68.9444444,31.7473684 68.8095238,29.6947368 C68.4047619,26 67.1904762,22.5789474 65.3015873,19.5684211 L42.6349206,26.1368421 C42.5,26.1368421 42.3650794,26.1368421 42.0952381,26.1368421 L19.4285714,19.5684211 C17.6746032,22.5789474 16.4603175,26 16.0555556,29.6947368 C15.7857143,31.7473684 16.8650794,33.6631579 18.7539683,34.4842105 C19.1587302,34.6210526 19.4285714,34.7578947 19.8333333,34.8947368" id="Path"></path>
                            </g>
                        </g>
                    </g>
                </g>
            </g>
        </g>
    </g>
</svg>