<?xml version="1.0" encoding="UTF-8"?>
<svg width="85px" height="85px" viewBox="0 0 85 85" version="1.1" xmlns="http://www.w3.org/2000/svg" xmlns:xlink="http://www.w3.org/1999/xlink">
    <!-- Generator: Sketch 53.2 (72643) - https://sketchapp.com -->
    <title>noun_Learning_1438589</title>
    <desc>Created with Sketch.</desc>
    <g id="Page-1" stroke="none" stroke-width="1" fill="none" fill-rule="evenodd">
        <g id="Desktop-HD-Copy" transform="translate(-274.000000, -3673.000000)" fill="#8C1515" fill-rule="nonzero">
            <g id="program-highlights" transform="translate(-4.000000, 3208.000000)">
                <g id="noun_Learning_1438589" transform="translate(278.000000, 465.000000)">
                    <g id="Group">
                        <path d="M47.8125,7.96875 L69.0625,7.96875 C69.7960032,7.96875 70.390625,7.37412818 70.390625,6.640625 C70.390625,5.90712182 69.7960032,5.3125 69.0625,5.3125 L47.8125,5.3125 C47.0789968,5.3125 46.484375,5.90712182 46.484375,6.640625 C46.484375,7.37412818 47.0789968,7.96875 47.8125,7.96875 Z" id="Path"></path>
                        <path d="M74.375,29.21875 L51.796875,29.21875 C51.0633718,29.21875 50.46875,29.8133718 50.46875,30.546875 C50.46875,31.2803782 51.0633718,31.875 51.796875,31.875 L74.375,31.875 C75.1085032,31.875 75.703125,31.2803782 75.703125,30.546875 C75.703125,29.8133718 75.1085032,29.21875 74.375,29.21875 Z" id="Path"></path>
                        <path d="M74.375,45.15625 L67.734375,45.15625 C67.0008718,45.15625 66.40625,45.7508718 66.40625,46.484375 C66.40625,47.2178782 67.0008718,47.8125 67.734375,47.8125 L74.375,47.8125 C75.1085032,47.8125 75.703125,47.2178782 75.703125,46.484375 C75.703125,45.7508718 75.1085032,45.15625 74.375,45.15625 Z" id="Path"></path>
                        <path d="M74.375,23.90625 L51.796875,23.90625 C51.0633718,23.90625 50.46875,24.5008718 50.46875,25.234375 C50.46875,25.9678782 51.0633718,26.5625 51.796875,26.5625 L74.375,26.5625 C75.1085032,26.5625 75.703125,25.9678782 75.703125,25.234375 C75.703125,24.5008718 75.1085032,23.90625 74.375,23.90625 Z" id="Path"></path>
                        <path d="M74.375,18.59375 L51.796875,18.59375 C51.0633718,18.59375 50.46875,19.1883718 50.46875,19.921875 C50.46875,20.6553782 51.0633718,21.25 51.796875,21.25 L74.375,21.25 C75.1085032,21.25 75.703125,20.6553782 75.703125,19.921875 C75.703125,19.1883718 75.1085032,18.59375 74.375,18.59375 Z" id="Path"></path>
                        <path d="M83.671875,10.625 L81.015625,10.625 C78.8151154,10.625 77.03125,8.84113455 77.03125,6.640625 C77.03125,4.44011545 78.8151154,2.65625 81.015625,2.65625 L83.671875,2.65625 C84.4053782,2.65625 85,2.06162818 85,1.328125 C85,0.594621817 84.4053782,-3.99175094e-16 83.671875,-4.4408921e-16 L47.8125,-4.4408921e-16 C44.1449841,-7.88538094e-17 41.171875,2.97310908 41.171875,6.640625 L41.171875,47.8125 C41.171875,49.5737033 41.8715103,51.2627722 43.116869,52.508131 C44.3622278,53.7534897 46.0512967,54.453125 47.8125,54.453125 L83.671875,54.453125 C84.4053782,54.453125 85,53.8585032 85,53.125 L85,11.953125 C85,11.2196218 84.4053782,10.625 83.671875,10.625 Z M47.8125,2.65625 L75.703125,2.65625 C73.8867354,5.00198037 73.8867354,8.27926963 75.703125,10.625 L47.8125,10.625 C45.6119904,10.625 43.828125,8.84113455 43.828125,6.640625 C43.828125,4.44011545 45.6119904,2.65625 47.8125,2.65625 L47.8125,2.65625 Z M82.34375,51.796875 L47.8125,51.796875 C45.6119904,51.796875 43.828125,50.0130096 43.828125,47.8125 L43.828125,11.953125 C44.9775918,12.8152251 46.3756666,13.28125 47.8125,13.28125 L82.34375,13.28125 L82.34375,51.796875 Z" id="Shape"></path>
                        <path d="M31.875,73.046875 L18.8195313,73.046875 C16.4943262,73.046875 14.609375,71.1619238 14.609375,68.8367187 L14.609375,58.4375 C14.609375,57.7039968 14.0147532,57.109375 13.28125,57.109375 L2.65625,57.109375 L2.65625,54.7984375 L9.12421875,43.1507812 C9.20891208,43.0120908 9.26743349,42.8590348 9.296875,42.6992187 L10.9703125,31.7953125 C12.9042288,18.8228278 24.0717812,9.2393254 37.1875,9.296875 C37.9210032,9.296875 38.515625,8.70225318 38.515625,7.96875 C38.515625,7.23524682 37.9210032,6.640625 37.1875,6.640625 C22.7501807,6.56902192 10.453824,17.11684 8.32734375,31.396875 L6.640625,42.0617188 L0.17265625,53.8023437 C0.0601609939,54.0008396 0.000698157456,54.2249687 -1.11022302e-16,54.453125 L-1.11022302e-16,58.4375 C-2.11940699e-17,59.1710032 0.594621817,59.765625 1.328125,59.765625 L11.953125,59.765625 L11.953125,68.8367187 C11.953125,72.6289302 15.0273198,75.703125 18.8195313,75.703125 L27.890625,75.703125 L27.890625,83.671875 C27.890625,84.4053782 28.4852468,85 29.21875,85 C29.9522532,85 30.546875,84.4053782 30.546875,83.671875 L30.546875,75.703125 L31.875,75.703125 C32.6085032,75.703125 33.203125,75.1085032 33.203125,74.375 C33.203125,73.6414968 32.6085032,73.046875 31.875,73.046875 Z" id="Path"></path>
                        <path d="M61.09375,57.6007812 C60.828125,57.9283854 60.5536458,58.2471354 60.2703125,58.5570312 L62.2359375,60.3367188 C62.5458333,59.9914063 62.8513021,59.6372396 63.1523438,59.2742188 L61.09375,57.6007812 Z" id="Path"></path>
                        <path d="M15.9375,41.65 L18.59375,41.7296875 C18.6206126,40.8854163 18.6915425,40.0431237 18.80625,39.20625 L16.15,38.8476562 C16.0294673,39.777336 15.9585336,40.7127753 15.9375,41.65 Z" id="Path"></path>
                        <path d="M20.4,51.6375 C20.0800242,50.8555987 19.8007442,50.0576558 19.5632812,49.246875 L17.0132812,49.990625 C17.2758796,50.8918933 17.5862135,51.7785616 17.9429687,52.646875 L20.4,51.6375 Z" id="Path"></path>
                        <path d="M18.9789062,46.7765625 C18.8061383,45.9472586 18.6775715,45.109358 18.59375,44.2664063 L15.9375,44.4523438 C16.0031092,45.3874925 16.118376,46.3184932 16.2828125,47.2414063 L18.9789062,46.7765625 Z" id="Path"></path>
                        <path d="M22.8171875,56.0734375 C22.3371037,55.3800048 21.8937843,54.6618274 21.4890625,53.921875 L19.1515625,55.25 C19.6003152,56.0724029 20.0924141,56.870401 20.6257812,57.640625 L22.8171875,56.0734375 Z" id="Path"></path>
                        <path d="M31.4898437,21.25 C32.2367048,20.8600156 33.0036604,20.5097873 33.7875,20.2007813 L32.8179687,17.7304688 C31.9431626,18.073713 31.0874943,18.4638623 30.2546875,18.8992188 L31.4898437,21.25 Z" id="Path"></path>
                        <path d="M16.7210938,36.0851563 L19.2976562,36.7226563 C19.5025155,35.8999446 19.7507795,35.0886534 20.0414062,34.2921875 L17.5445312,33.3890625 C17.2229228,34.2726853 16.9480631,35.1726289 16.7210938,36.0851563 L16.7210938,36.0851563 Z" id="Path"></path>
                        <path d="M18.59375,30.7992187 L20.9710938,31.9679687 C21.3430758,31.2115061 21.7553875,30.4755519 22.20625,29.7632813 L19.9617187,28.3421875 C19.461813,29.1359644 19.0051579,29.9561701 18.59375,30.7992187 L18.59375,30.7992187 Z" id="Path"></path>
                        <path d="M26.1109375,59.9117187 C25.4947358,59.3320384 24.9095474,58.7202506 24.3578125,58.0789062 L22.3523437,59.765625 C22.9625372,60.4765757 23.6097897,61.1548609 24.2914063,61.7976563 L26.1109375,59.9117187 Z" id="Path"></path>
                        <path d="M25.4070312,25.7921875 L23.5078125,23.90625 C22.851706,24.57733 22.2310703,25.2821949 21.6484375,26.0179688 L23.7335938,27.6648438 C24.2589947,27.0124011 24.8175421,26.3873599 25.4070312,25.7921875 L25.4070312,25.7921875 Z" id="Path"></path>
                        <path d="M52.0492188,64.4273437 L53.1117187,66.8578125 C53.9744222,66.4818117 54.8167335,66.060656 55.6351563,65.5960937 L54.3070313,63.2851562 C53.5753804,63.7059621 52.8216946,64.0872384 52.0492188,64.4273437 Z" id="Path"></path>
                        <path d="M47.228125,65.9414062 L47.7460938,68.5976562 C48.6664968,68.3940469 49.5753477,68.141342 50.46875,67.840625 L49.671875,65.3039062 C48.8693318,65.5601399 48.0535662,65.7729483 47.228125,65.9414062 L47.228125,65.9414062 Z" id="Path"></path>
                        <path d="M36.5765625,68.3984375 C37.4928411,68.6061637 38.4193706,68.7657573 39.3523437,68.8765625 L39.6710937,66.2203125 C38.8365318,66.1270827 38.0075025,65.9896501 37.1875,65.8085938 L36.5765625,68.3984375 Z" id="Path"></path>
                        <path d="M42.5,66.40625 L42.18125,66.40625 L42.18125,69.0625 L42.5,69.0625 C43.3234375,69.0625 44.146875,69.0625 44.9570313,68.95625 L44.7179688,66.3 C43.9875,66.40625 43.24375,66.40625 42.5,66.40625 Z" id="Path"></path>
                        <path d="M29.2984375,22.578125 L27.890625,20.346875 C27.1094125,20.865017 26.3557827,21.4235896 25.6328125,22.0203125 L27.3328125,24.065625 C27.96218,23.536539 28.6182488,23.0400545 29.2984375,22.578125 L29.2984375,22.578125 Z" id="Path"></path>
                        <path d="M58.4375,60.3367188 C57.8062528,60.8981364 57.1456907,61.4256994 56.4585937,61.9171875 L58.0125,64.06875 C58.773508,63.5188742 59.5049923,62.9292535 60.2039062,62.3023437 L58.4375,60.3367188 Z" id="Path"></path>
                        <path d="M30.1484375,62.9664062 C29.4247592,62.5294635 28.7243312,62.055123 28.05,61.5453125 L26.4429687,63.6570312 C27.1898143,64.2237505 27.9655995,64.7512844 28.7671875,65.2375 L30.1484375,62.9664062 Z" id="Path"></path>
                        <path d="M31.2507812,66.565625 C32.1171072,66.961888 33.003759,67.3121155 33.9070313,67.6148438 L34.7304688,65.078125 C33.9304969,64.8012214 33.1457977,64.4820217 32.3796875,64.121875 L31.2507812,66.565625 Z" id="Path"></path>
                        <path d="M36.9085938,16.521875 C36.4481771,16.6192708 36.0054687,16.7299479 35.5804688,16.8539063 L36.2710937,19.4171875 L37.4929688,19.125 L36.9085938,16.521875 Z" id="Path"></path>
                        <path d="M76.0882812,57.4945313 L66.7914063,66.7914063 C62.2777098,71.2464784 59.7457455,77.3298936 59.765625,83.671875 C59.765625,84.4053782 60.3602468,85 61.09375,85 C61.8272532,85 62.421875,84.4053782 62.421875,83.671875 C62.4092939,78.069139 64.6377647,72.6940293 68.6109375,68.74375 L77.9078125,59.446875 C78.3590786,58.9199278 78.3287382,58.1344296 77.8381699,57.6438613 C77.3476016,57.1532931 76.5621035,57.1229527 76.0351562,57.5742188 L76.0882812,57.4945313 Z" id="Path"></path>
                    </g>
                </g>
            </g>
        </g>
    </g>
</svg>