<?xml version="1.0" encoding="UTF-8"?>
<svg width="88px" height="80px" viewBox="0 0 88 80" version="1.1" xmlns="http://www.w3.org/2000/svg" xmlns:xlink="http://www.w3.org/1999/xlink">
    <!-- Generator: Sketch 53.2 (72643) - https://sketchapp.com -->
    <title>noun_Time_526522</title>
    <desc>Created with Sketch.</desc>
    <g id="Page-1" stroke="none" stroke-width="1" fill="none" fill-rule="evenodd">
        <g id="Desktop-HD-Copy" transform="translate(-677.000000, -3392.000000)" fill="#8C1515" fill-rule="nonzero">
            <g id="program-highlights" transform="translate(-4.000000, 3208.000000)">
                <g id="noun_Time_526522" transform="translate(681.000000, 184.000000)">
                    <g id="Group">
                        <path d="M33.2643037,73.1851852 C24.3276251,69.2345679 17.4761715,62.1234568 14.0007965,53.1358025 C10.8233108,45.037037 10.7240143,36.345679 13.5043144,28.2469136 L15.9867251,38.9135802 L19.660693,38.0246914 L14.9937608,18.2716049 L0.099296429,33.2839506 L2.78030001,35.9506173 L9.2345679,29.5308642 C6.95075003,37.7283951 7.34793575,46.4197531 10.5254215,54.4197531 C14.3979822,64.3950617 21.9445108,72.2962963 31.7748573,76.6419753 C36.9382716,78.9135802 42.4988716,80 47.9601752,80 C58.6841896,80 69.3089075,75.7530864 77.0540289,67.654321 L74.2737289,65.0864198 C63.7483074,76.0493827 47.2651002,79.308642 33.2643037,73.1851852 Z" id="Path"></path>
                        <path d="M46.3714324,0.296296296 C43.9883181,0.395061728 41.5059073,0.691358025 39.122793,1.28395062 L39.817868,4.34567901 C42.0023895,3.85185185 44.2862074,3.55555556 46.4707288,3.45679012 L46.3714324,0.296296296 Z" id="Path"></path>
                        <path d="M76.7561397,12.4444444 C75.0681004,10.6666667 73.1814682,9.08641975 71.1955396,7.7037037 L69.4082039,10.2716049 C71.1955396,11.5555556 72.9828753,13.037037 74.4723218,14.617284 L76.7561397,12.4444444 Z" id="Path"></path>
                        <path d="M67.9187575,5.5308642 C66.7272003,4.83950617 65.4363467,4.24691358 64.1454932,3.65432099 C63.1525289,3.25925926 62.258861,2.86419753 61.2658967,2.56790123 L60.173636,5.5308642 C61.0673039,5.82716049 61.9609717,6.22222222 62.8546396,6.61728395 C64.0461967,7.11111111 65.2377539,7.7037037 66.3300146,8.39506173 L67.9187575,5.5308642 Z" id="Path"></path>
                        <path d="M83.309704,21.4320988 C82.2174432,19.2592593 80.8272932,17.2839506 79.3378468,15.4074074 L76.8554361,17.382716 C78.2455861,19.1604938 79.4371432,21.037037 80.529404,23.0123457 L83.309704,21.4320988 Z" id="Path"></path>
                        <path d="M34.6544537,2.56790123 C32.5692287,3.25925926 30.5833001,4.14814815 28.696668,5.2345679 L30.1861144,8 C31.9734502,7.01234568 33.7607859,6.22222222 35.647418,5.5308642 C35.8460109,5.43209877 36.1439002,5.33333333 36.342493,5.33333333 L35.3495287,2.37037037 C35.1509359,2.4691358 34.8530466,2.4691358 34.6544537,2.56790123 Z" id="Path"></path>
                        <path d="M82.4160361,52.7407407 L85.394929,53.8271605 C86.2885968,51.5555556 86.8843754,49.1851852 87.2815611,46.8148148 L84.2033718,46.2222222 C83.8061861,48.4938272 83.2104075,50.6666667 82.4160361,52.7407407 Z" id="Path"></path>
                        <path d="M57.4926324,1.38271605 C55.1095181,0.790123457 52.7264038,0.395061728 50.2439931,0.296296296 L50.0454002,3.45679012 C52.2299217,3.55555556 54.5137395,3.95061728 56.698261,4.44444444 L57.4926324,1.38271605 Z" id="Path"></path>
                        <path d="M77.5505111,61.8271605 L80.0329218,63.7037037 C81.5223682,61.7283951 82.7139254,59.654321 83.8061861,57.4814815 L80.9265897,56.0987654 C80.0329218,58.0740741 78.8413647,60.0493827 77.5505111,61.8271605 Z" id="Path"></path>
                        <path d="M84.6005575,36.1481481 C84.699854,37.4320988 84.7991504,38.8148148 84.7991504,40.0987654 C84.7991504,40.9876543 84.7991504,41.9753086 84.699854,42.8641975 L87.8773397,43.0617284 C87.9766361,42.0740741 87.9766361,41.0864198 87.9766361,40.0987654 C87.9766361,38.7160494 87.8773397,37.2345679 87.7780433,35.8518519 L84.6005575,36.1481481 Z" id="Path"></path>
                        <path d="M87.0829683,31.9012346 C86.5864861,29.5308642 85.8914111,27.1604938 84.9977433,24.9876543 L82.1181468,26.1728395 C83.0118147,28.2469136 83.6075933,30.4197531 84.1040754,32.5925926 L87.0829683,31.9012346 Z" id="Path"></path>
                        <path d="M63.3511217,15.0123457 C62.4574539,14.5185185 61.2658967,14.7160494 60.7694146,15.6049383 L59.7764503,17.2839506 C59.2799681,18.1728395 59.478561,19.3580247 60.3722289,19.8518519 C60.6701181,20.0493827 60.9680074,20.1481481 61.3651932,20.1481481 C61.9609717,20.1481481 62.6560467,19.8518519 62.953936,19.2592593 L63.9469003,17.5802469 C64.5426789,16.691358 64.2447896,15.5061728 63.3511217,15.0123457 Z" id="Path"></path>
                        <path d="M48.6552502,10.7654321 C47.6622859,10.7654321 46.7686181,11.5555556 46.7686181,12.6419753 L46.7686181,14.617284 C46.7686181,15.7037037 47.5629895,16.4938272 48.6552502,16.4938272 C48.6552502,16.4938272 48.6552502,16.4938272 48.6552502,16.4938272 C49.6482145,16.4938272 50.5418824,15.7037037 50.5418824,14.617284 L50.5418824,12.6419753 C50.5418824,11.654321 49.6482145,10.7654321 48.6552502,10.7654321 Z" id="Path"></path>
                        <path d="M33.7607859,14.4197531 C32.867118,14.9135802 32.4699323,16.0987654 33.0657109,16.9876543 L34.0586752,18.7654321 C34.3565644,19.3580247 35.0516395,19.7530864 35.7467145,19.7530864 C36.0446037,19.7530864 36.342493,19.654321 36.6403823,19.5555556 C37.5340502,19.0617284 37.9312359,17.8765432 37.3354573,16.9876543 L36.342493,15.2098765 C35.8460109,14.2222222 34.6544537,13.9259259 33.7607859,14.4197531 Z" id="Path"></path>
                        <path d="M24.6255144,50.8641975 L22.8381787,51.8518519 C21.9445108,52.345679 21.5473251,53.5308642 22.1431037,54.4197531 C22.440993,55.0123457 23.136068,55.4074074 23.831143,55.4074074 C24.1290323,55.4074074 24.4269215,55.308642 24.7248108,55.2098765 L26.5121466,54.2222222 C27.4058144,53.7283951 27.8030001,52.5432099 27.2072216,51.654321 C26.7107394,50.6666667 25.6184787,50.3703704 24.6255144,50.8641975 Z" id="Path"></path>
                        <path d="M32.7678216,65.382716 C33.0657109,65.5802469 33.3636002,65.6790123 33.7607859,65.6790123 C34.3565644,65.6790123 35.0516395,65.382716 35.3495287,64.7901235 L36.342493,63.1111111 C36.8389752,62.2222222 36.6403823,61.037037 35.7467145,60.5432099 C34.8530466,60.0493827 33.6614894,60.2469136 33.1650073,61.1358025 L32.172043,62.8148148 C31.5762644,63.7037037 31.8741537,64.7901235 32.7678216,65.382716 Z" id="Path"></path>
                        <path d="M47.5629895,63.8024691 C46.5700252,63.8024691 45.6763574,64.5925926 45.6763574,65.6790123 L45.6763574,67.654321 C45.6763574,68.7407407 46.4707288,69.5308642 47.5629895,69.5308642 C47.5629895,69.5308642 47.5629895,69.5308642 47.5629895,69.5308642 C48.5559538,69.5308642 49.4496217,68.7407407 49.4496217,67.654321 L49.4496217,65.6790123 C49.4496217,64.691358 48.6552502,63.9012346 47.5629895,63.8024691 C47.5629895,63.8024691 47.5629895,63.8024691 47.5629895,63.8024691 Z" id="Path"></path>
                        <path d="M59.7764503,65.1851852 C60.0743396,65.7777778 60.7694146,66.1728395 61.4644896,66.1728395 C61.7623789,66.1728395 62.0602682,66.0740741 62.3581574,65.9753086 C63.2518253,65.4814815 63.649011,64.2962963 63.0532324,63.4074074 L62.0602682,61.6296296 C61.563786,60.7407407 60.3722289,60.345679 59.478561,60.9382716 C58.5848931,61.4320988 58.1877074,62.617284 58.783486,63.5061728 L59.7764503,65.1851852 Z" id="Path"></path>
                        <path d="M68.4152396,52.4444444 C67.9187575,53.3333333 68.1173503,54.5185185 69.0110182,55.0123457 L70.6990575,56 C70.9969468,56.1975309 71.2948361,56.2962963 71.6920218,56.2962963 C72.2878003,56.2962963 72.9828753,56 73.2807646,55.4074074 C73.7772468,54.5185185 73.5786539,53.3333333 72.6849861,52.8395062 L70.9969468,51.8518519 C70.1032789,51.2592593 68.9117218,51.5555556 68.4152396,52.4444444 Z" id="Path"></path>
                        <path d="M75.6638789,42.5679012 C75.6638789,42.5679012 75.6638789,42.5679012 75.6638789,42.5679012 C76.7561397,42.5679012 77.5505111,41.7777778 77.5505111,40.691358 C77.5505111,39.6049383 76.7561397,38.8148148 75.6638789,38.8148148 L73.6779504,38.8148148 C73.6779504,38.8148148 73.6779504,38.8148148 73.6779504,38.8148148 C72.6849861,38.8148148 71.7913182,39.6049383 71.7913182,40.691358 C71.7913182,41.7777778 72.5856896,42.5679012 73.6779504,42.5679012 L75.6638789,42.5679012 Z" id="Path"></path>
                        <path d="M68.9117218,28.7407407 C69.209611,29.3333333 69.904686,29.7283951 70.5997611,29.7283951 C70.8976503,29.7283951 71.1955396,29.6296296 71.4934289,29.5308642 L73.2807646,28.5432099 C74.1744325,28.0493827 74.5716182,26.8641975 73.9758396,25.9753086 C73.4793575,25.0864198 72.2878003,24.691358 71.3941325,25.2839506 L69.6067968,26.2716049 C68.7131289,26.6666667 68.4152396,27.8518519 68.9117218,28.7407407 Z" id="Path"></path>
                        <path d="M60.2729324,24.3950617 L48.4566574,37.5308642 C48.1587681,37.4320988 47.8608788,37.4320988 47.5629895,37.4320988 C47.2651002,37.4320988 46.9672109,37.5308642 46.6693217,37.6296296 L35.7467145,27.9506173 L33.2643037,30.7160494 L44.1869109,40.3950617 C43.9883181,41.6790123 44.2862074,42.962963 45.3784681,43.8518519 C46.0735431,44.4444444 46.9672109,44.8395062 47.8608788,44.8395062 C47.9601752,44.8395062 47.9601752,44.8395062 48.0594717,44.8395062 C49.0524359,44.7407407 49.9461038,44.345679 50.6411788,43.654321 C51.3362538,42.962963 51.6341431,41.9753086 51.5348467,40.9876543 C51.5348467,40.691358 51.4355502,40.3950617 51.3362538,40.0987654 L63.1525289,26.962963 L60.2729324,24.3950617 Z" id="Shape"></path>
                    </g>
                </g>
            </g>
        </g>
    </g>
</svg>